<?xml version="1.0" standalone="no"?>
<!DOCTYPE svg PUBLIC "-//W3C//DTD SVG 1.1//EN" "http://www.w3.org/Graphics/SVG/1.1/DTD/svg11.dtd" >
<svg xmlns="http://www.w3.org/2000/svg">
<metadata></metadata>
<defs>
<font id="days_sans_blackregular" horiz-adv-x="1802" >
<font-face units-per-em="2048" ascent="1638" descent="-410" />
<missing-glyph horiz-adv-x="634" />
<glyph horiz-adv-x="0" />
<glyph horiz-adv-x="682" />
<glyph unicode=" "  horiz-adv-x="634" />
<glyph unicode="&#x09;" horiz-adv-x="634" />
<glyph unicode="&#xa0;" horiz-adv-x="634" />
<glyph unicode="!" horiz-adv-x="679" d="M104 1362q-1 30 20 51t52 21h328q31 0 51.5 -20.5t19.5 -51.5l-40 -830q-2 -31 -21.5 -51t-50.5 -20h-246q-31 0 -50.5 20t-21.5 51zM135 102v144q0 38 32.5 70t70.5 32h204q38 0 70.5 -32t32.5 -70v-144q0 -38 -32.5 -70t-70.5 -32h-204q-38 0 -70.5 32t-32.5 70z" />
<glyph unicode="&#x22;" horiz-adv-x="974" d="M63 1372q-3 30 14 46t48 16h256q31 0 47.5 -16t13.5 -46l-41 -399q-3 -32 -17 -47t-44 -15h-174q-56 0 -62 62zM532 1372q-3 30 14 46t48 16h256q31 0 47.5 -16t13.5 -46l-41 -399q-3 -32 -17 -47t-44 -15h-174q-56 0 -62 62z" />
<glyph unicode="#" horiz-adv-x="1740" d="M41 358v164q0 31 20.5 51.5t51.5 20.5h215l61 246h-174q-31 0 -51.5 20t-20.5 51v164q0 31 20.5 51.5t51.5 20.5h256l61 215q21 72 93 72h266q24 0 41.5 -21.5t9.5 -50.5l-61 -215h204l62 215q21 72 92 72h266q24 0 41.5 -21.5t9.5 -50.5l-61 -215h133q31 0 51.5 -20.5 t20.5 -51.5v-164q0 -31 -20.5 -51t-51.5 -20h-215l-61 -246h174q31 0 51 -20.5t20 -51.5v-164q0 -31 -20 -51t-51 -20h-258l-60 -215q-7 -30 -40 -51t-72 -21h-246q-25 0 -42.5 21.5t-8.5 50.5l61 215h-205l-61 -215q-21 -72 -92 -72h-266q-25 0 -43 21.5t-9 50.5l62 215 h-133q-31 0 -51.5 20t-20.5 51zM737 594h205l62 246h-205z" />
<glyph unicode="$" horiz-adv-x="1628" d="M61 410q0 38 22 60t60 22h256q43 0 71 -20.5t52 -61.5q30 -50 95 -81.5t202 -31.5q141 0 209 40t68 93q0 32 -34 54.5t-91.5 36t-132 24.5t-157 24.5t-165 32t-157 52t-132 79t-91.5 117.5t-34 164q0 83 32 156t96.5 134t170.5 103t244 57v92q0 23 19.5 42.5t42.5 19.5 h225q23 0 42 -19.5t19 -42.5v-92q249 -37 386 -155.5t137 -264.5q0 -38 -22 -59.5t-60 -21.5h-256q-43 0 -71.5 20t-51.5 61q-20 34 -77.5 63.5t-158.5 29.5q-128 0 -187 -35.5t-59 -87.5q0 -32 34 -54.5t91.5 -36t132 -24.5t157 -24.5t165 -32t157 -52t132 -79t91.5 -117.5 t34 -164q0 -178 -147 -304.5t-427 -156.5v-92q0 -23 -19 -42t-42 -19h-225q-23 0 -42.5 19t-19.5 42v92q-152 15 -267.5 57t-183 102.5t-100.5 131t-33 150.5z" />
<glyph unicode="%" horiz-adv-x="1904" d="M41 1116q0 157 109 258t290 101t290.5 -101t109.5 -258q0 -156 -109 -257t-291 -101q-181 0 -290 100.5t-109 257.5zM224 24.5q-15 24.5 3 47.5l981 1290q58 72 123 72h297q37 0 52 -24.5t-3 -47.5l-981 -1290q-53 -72 -123 -72h-297q-37 0 -52 24.5zM358 1116 q0 -58 24.5 -90.5t57.5 -32.5t57.5 32.5t24.5 90.5t-24.5 90.5t-57.5 32.5t-57.5 -32.5t-24.5 -90.5zM1065 317q0 157 109 258t290 101t290.5 -101t109.5 -258q0 -156 -109 -257t-291 -101q-181 0 -290 100.5t-109 257.5zM1382 317q0 -58 24.5 -90t57.5 -32t57.5 32t24.5 90 t-24.5 90.5t-57.5 32.5t-57.5 -32.5t-24.5 -90.5z" />
<glyph unicode="&#x26;" horiz-adv-x="1701" d="M41 389q0 63 18 118t47 93.5t64 70.5t70 51t64 32.5t47 18.5l18 5v21q-5 3 -14 10t-32 31t-40.5 52t-32 74.5t-14.5 98.5q0 78 39 150.5t111 131t187 93.5t256 35q140 0 259 -38.5t195 -100.5t118.5 -138t42.5 -154q0 -38 -22 -59.5t-60 -21.5h-256q-62 0 -123 81 q-70 93 -154 93q-59 0 -90.5 -26.5t-31.5 -66.5q0 -18 8.5 -35t32 -41.5t46 -45.5t71 -64.5t87.5 -79.5l154 -143l123 123q22 23 49.5 23t52.5 -23l154 -144q23 -22 22.5 -49.5t-22.5 -52.5l-123 -123l328 -317q23 -23 5 -47.5t-57 -24.5h-389q-34 0 -61.5 11t-41 22.5 t-40.5 38.5l-51 51h-21q-6 -7 -18 -18t-54 -39t-89 -50t-123 -39.5t-156 -17.5q-259 0 -406 122.5t-147 307.5zM512 410q0 -47 36.5 -80t96.5 -33q41 0 79.5 18t56.5 36l18 18l-195 184q-4 -2 -10 -6t-22 -18t-28 -29t-22 -39.5t-10 -50.5z" />
<glyph unicode="'" horiz-adv-x="505" d="M63 1372q-3 30 14 46t48 16h256q31 0 47.5 -16t13.5 -46l-41 -399q-3 -32 -17 -47t-44 -15h-174q-56 0 -62 62z" />
<glyph unicode="(" horiz-adv-x="897" d="M92 635q0 163 37 315t92.5 261t128 203.5t134 150.5t120.5 94q44 28 72 0l184 -195q15 -15 14 -35t-16 -34q-28 -27 -49.5 -48.5t-56.5 -64t-60.5 -84t-55.5 -104t-49 -128t-31.5 -152t-12.5 -179.5t12.5 -179.5t31.5 -152t49 -128t55.5 -104t60.5 -84t56.5 -64 t49.5 -48.5q15 -14 16 -34.5t-14 -35.5l-184 -194q-28 -28 -72 0q-59 38 -120.5 94t-134 150.5t-128 203.5t-92.5 261t-37 315z" />
<glyph unicode=")" horiz-adv-x="897" d="M23 -159.5q1 20.5 16 34.5q28 27 49.5 48.5t56.5 64t60.5 84t55.5 104t49 128t31.5 152t12.5 179.5t-12.5 179.5t-31.5 152t-49 128t-55.5 104t-60.5 84t-56.5 64t-49.5 48.5q-15 14 -16 34t14 35l184 195q28 28 72 0q59 -38 120.5 -94t134 -150.5t128 -203.5t92.5 -261 t37 -315t-37 -315t-92.5 -261t-128 -203.5t-134 -150.5t-120.5 -94q-44 -28 -72 0l-184 194q-15 15 -14 35.5z" />
<glyph unicode="*" horiz-adv-x="1017" d="M75 1125.5q-6 27.5 9 52.5l61 102q13 22 41.5 27.5t51.5 -7.5l143 -81v143q0 31 20.5 51.5t51.5 20.5h112q31 0 51.5 -20.5t20.5 -51.5v-143l143 81q23 13 51 7.5t41 -27.5l62 -102q15 -25 8.5 -52t-29.5 -41l-143 -81l143 -82q23 -13 29 -41.5t-8 -51.5l-62 -102 q-15 -23 -42 -28.5t-50 8.5l-143 81v-143q0 -31 -20.5 -51.5t-51.5 -20.5h-112q-31 0 -51.5 20.5t-20.5 51.5v143l-143 -81q-23 -14 -50.5 -8.5t-42.5 28.5l-61 102q-14 23 -8.5 51.5t28.5 41.5l144 82l-144 81q-23 13 -29 40.5z" />
<glyph unicode="+" horiz-adv-x="1249" d="M82 584v184q0 31 20.5 51.5t51.5 20.5h307v307q0 31 20 51.5t51 20.5h185q31 0 51 -20.5t20 -51.5v-307h308q31 0 51 -20.5t20 -51.5v-184q0 -31 -20 -51.5t-51 -20.5h-308v-307q0 -31 -20 -51.5t-51 -20.5h-185q-31 0 -51 20.5t-20 51.5v307h-307q-31 0 -51.5 20.5 t-20.5 51.5z" />
<glyph unicode="," horiz-adv-x="573" d="M82 102v123q0 38 32 70.5t70 32.5h205q38 0 70.5 -32.5t32.5 -70.5v-123q0 -17 -1 -31.5t-3.5 -25.5t-4 -19t-5.5 -16l-5.5 -11t-6 -10.5t-5.5 -8.5l-92 -144q-40 -61 -93 -61h-81q-36 0 -50 19.5t0 41.5l91 164h-52q-38 0 -70 32t-32 70z" />
<glyph unicode="-" horiz-adv-x="1187" d="M82 584v184q0 31 20.5 51.5t51.5 20.5h880q31 0 51.5 -20.5t20.5 -51.5v-184q0 -31 -20.5 -51.5t-51.5 -20.5h-880q-31 0 -51.5 20.5t-20.5 51.5z" />
<glyph unicode="." horiz-adv-x="573" d="M82 102v144q0 38 32 70t70 32h205q38 0 70.5 -32t32.5 -70v-144q0 -38 -32.5 -70t-70.5 -32h-205q-38 0 -70 32t-32 70z" />
<glyph unicode="/" horiz-adv-x="1265" d="M29 24.5q-15 24.5 0 47.5l737 1290q16 28 48.5 50t74.5 22h297q36 0 51 -24.5t0 -47.5l-737 -1290q-16 -28 -48.5 -50t-74.5 -22h-297q-36 0 -51 24.5z" />
<glyph unicode="0" horiz-adv-x="1679" d="M92 717q0 353 201 555.5t547 202.5t546.5 -202.5t200.5 -555.5t-200.5 -555.5t-546.5 -202.5t-547 202.5t-201 555.5zM563 717q0 -212 76.5 -316t200.5 -104q123 0 199.5 104t76.5 316t-76.5 316t-199.5 104q-124 0 -200.5 -104t-76.5 -316z" />
<glyph unicode="1" horiz-adv-x="985" d="M44 1114q6 26 30 43l276 205q3 3 17 13.5t20 14.5l19.5 13t24 13t25.5 9t32 7t36 2h236q31 0 51 -20.5t20 -51.5v-1290q0 -31 -20 -51.5t-51 -20.5h-307q-31 0 -51.5 20.5t-20.5 51.5v870h-21l-102 -61q-25 -15 -57 -9t-45 29l-103 164q-15 23 -9 49z" />
<glyph unicode="2" horiz-adv-x="1505" d="M72 72v174q0 88 38 162.5t99.5 125.5t141 96.5t161.5 76.5t161.5 64.5t141 62t99.5 67t38 82.5q0 64 -52.5 109t-141.5 45q-146 0 -215 -113q-26 -41 -53.5 -61.5t-69.5 -20.5h-256q-38 0 -60 22t-22 60q0 86 43 165.5t124.5 144t213.5 103t295 38.5q156 0 284.5 -40.5 t210 -109.5t126 -157t44.5 -185q0 -93 -33.5 -169t-91.5 -129t-128 -94t-152 -71.5t-153.5 -53.5t-141.5 -48.5t-109 -48.5v-21h725q31 0 51.5 -20.5t20.5 -51.5v-204q0 -31 -20.5 -51.5t-51.5 -20.5h-1196q-31 0 -51 20.5t-20 51.5z" />
<glyph unicode="3" horiz-adv-x="1566" d="M61 399q0 38 22 60t60 22h256q43 0 71.5 -20.5t51.5 -61.5q57 -102 236 -102q121 0 183.5 40.5t62.5 92.5q0 56 -45 94.5t-119 38.5h-205q-31 0 -51.5 20.5t-20.5 51.5v205q0 31 20.5 51t51.5 20h184q67 0 105.5 32.5t38.5 80.5q0 43 -51.5 78t-143.5 35 q-82 0 -132 -31.5t-73 -71.5q-23 -41 -51.5 -61.5t-71.5 -20.5h-256q-38 0 -60 22t-22 60q0 78 44.5 155.5t126 141.5t211 104t284.5 40q163 0 293.5 -36.5t210 -97t121 -134t41.5 -152.5q0 -63 -27.5 -116t-67 -83.5t-78.5 -52t-67 -29.5l-27 -8v-21q6 -1 17.5 -4 t43.5 -14.5t61 -27t64.5 -44t61 -62.5t43 -84.5t17.5 -109.5q0 -83 -44 -160t-129 -140.5t-226 -101.5t-318 -38q-134 0 -249 26t-196 70t-139 101t-85.5 119t-27.5 124z" />
<glyph unicode="4" horiz-adv-x="1617" d="M61 317v175q0 42 13 77t25 49.5t34 36.5l676 707q22 22 37 34t49.5 25t77.5 13h338q31 0 51 -20.5t20 -51.5v-768h113q31 0 51.5 -20.5t20.5 -51.5v-205q0 -31 -20.5 -51t-51.5 -20h-113v-174q0 -31 -20 -51.5t-51 -20.5h-307q-31 0 -51.5 20.5t-20.5 51.5v174h-799 q-31 0 -51.5 20t-20.5 51zM584 594h348v369h-21l-327 -349v-20z" />
<glyph unicode="5" horiz-adv-x="1546" d="M82 389q0 38 22 60t60 22h256q36 0 64 -20.5t59 -61.5q20 -26 40.5 -43t69.5 -33t115 -16q125 0 185.5 46.5t60.5 127.5t-60.5 127.5t-185.5 46.5q-91 0 -190.5 -30.5t-167.5 -30.5h-195q-31 0 -52 20.5t-20 50.5l41 707q2 31 22 51.5t50 20.5h1065q31 0 51.5 -20.5 t20.5 -51.5v-205q0 -31 -20.5 -51.5t-51.5 -20.5h-707l-10 -153h21q112 31 245 31q142 0 259.5 -39.5t194.5 -107t119 -156.5t42 -189q0 -110 -43.5 -201.5t-129.5 -161.5t-225 -109.5t-319 -39.5q-131 0 -244 26t-193 69t-137 99t-84.5 116.5t-27.5 119.5z" />
<glyph unicode="6" horiz-adv-x="1566" d="M92 717q0 352 198.5 555t538.5 203q121 0 225.5 -22.5t176.5 -60t123.5 -86t75.5 -99.5t24 -101q0 -38 -22 -60t-60 -22h-256q-36 0 -63 11.5t-46 28t-39.5 33.5t-55.5 28.5t-83 11.5q-113 0 -189.5 -70.5t-76.5 -165.5h21q13 6 36.5 14.5t101 22.5t159.5 14 q142 0 259.5 -39t194 -104.5t118.5 -150t42 -177.5q0 -113 -43 -207t-127.5 -165t-219 -110.5t-306.5 -39.5q-326 0 -516.5 200.5t-190.5 557.5zM563 573q0 -120 70.5 -198t165.5 -78q111 0 169 45.5t58 118.5t-58 118.5t-169 45.5q-55 0 -114 -13t-91 -26z" />
<glyph unicode="7" horiz-adv-x="1413" d="M41 1157v205q0 31 20.5 51.5t51.5 20.5h1187q31 0 51.5 -20.5t20.5 -51.5v-174q0 -32 -6 -59.5t-11.5 -40.5t-18 -35t-15.5 -29l-502 -952q-35 -72 -102 -72h-348q-33 0 -50.5 21.5t-1.5 50.5l533 993v20h-737q-31 0 -51.5 20.5t-20.5 51.5z" />
<glyph unicode="8" horiz-adv-x="1597" d="M72 399q0 59 16.5 109.5t42.5 85t57.5 62t63.5 44t58 27t42 14.5l17 4v21q-5 1 -13.5 4t-33 14t-47 25t-49.5 38t-46.5 52t-33 69t-13.5 87q0 79 41.5 152.5t121 134t210 97t293.5 36.5t293.5 -36.5t209.5 -97t120.5 -134t41.5 -152.5q0 -63 -24 -116t-59 -83.5 t-69.5 -52t-58.5 -29.5l-24 -8v-21q6 -1 17 -4t41.5 -14.5t58.5 -27t62.5 -44t59 -62.5t41.5 -84.5t17 -109.5q0 -83 -44 -160t-130 -140.5t-229 -101.5t-324 -38t-324 38t-229 101.5t-130 140.5t-44 160zM543 430q0 -52 64.5 -92.5t191.5 -40.5t191.5 40.5t64.5 92.5 t-64.5 92.5t-191.5 40.5t-191.5 -40.5t-64.5 -92.5zM604 1024q0 -43 51.5 -78t143.5 -35t143 35t51 78t-51 78t-143 35t-143.5 -35t-51.5 -78z" />
<glyph unicode="9" horiz-adv-x="1566" d="M72 952q0 113 43 207.5t127.5 165.5t219 110.5t306.5 39.5q326 0 516.5 -200.5t190.5 -557.5q0 -352 -199 -555t-539 -203q-121 0 -225.5 22.5t-176 60t-123 86t-75.5 99.5t-24 101q0 38 22 60t60 22h256q36 0 63 -11.5t45.5 -28t39 -33.5t55.5 -28.5t83 -11.5 q113 0 190 70.5t77 164.5h-21q-13 -6 -36.5 -14.5t-101 -22.5t-159.5 -14q-142 0 -259.5 39t-194 104.5t-118.5 150t-42 177.5zM541 973q0 -73 58 -118.5t169 -45.5q55 0 114 12.5t90 25.5l32 13q0 120 -70.5 198.5t-165.5 78.5q-111 0 -169 -45.5t-58 -118.5z" />
<glyph unicode=":" horiz-adv-x="614" d="M102 102v144q0 38 32.5 70t70.5 32h205q38 0 70 -32t32 -70v-144q0 -38 -32 -70t-70 -32h-205q-38 0 -70.5 32t-32.5 70zM102 819v144q0 38 32.5 70t70.5 32h205q38 0 70 -32t32 -70v-144q0 -38 -32 -70t-70 -32h-205q-38 0 -70.5 32t-32.5 70z" />
<glyph unicode=";" horiz-adv-x="614" d="M102 102v123q0 38 32.5 70.5t70.5 32.5h205q38 0 70 -32.5t32 -70.5v-123q0 -17 -1 -31.5t-3.5 -25.5t-4 -19t-5.5 -16l-5.5 -11t-6 -10.5t-5.5 -8.5l-92 -144q-21 -32 -41.5 -46.5t-50.5 -14.5h-82q-36 0 -49.5 19.5t0.5 41.5l90 164h-51q-38 0 -70.5 32t-32.5 70z M102 819v144q0 38 32.5 70t70.5 32h205q38 0 70 -32t32 -70v-144q0 -38 -32 -70t-70 -32h-205q-38 0 -70.5 32t-32.5 70z" />
<glyph unicode="&#x3c;" horiz-adv-x="1208" d="M82 430v205q0 58 61 82l881 348q32 13 57 -0.5t25 -50.5v-205q0 -63 -82 -92l-492 -174v-21l492 -174q82 -29 82 -92v-205q0 -37 -25 -50.5t-57 -0.5l-881 348q-61 24 -61 82z" />
<glyph unicode="=" horiz-adv-x="1208" d="M102 317v164q0 31 20.5 51.5t51.5 20.5h860q31 0 51.5 -20.5t20.5 -51.5v-164q0 -31 -20.5 -51t-51.5 -20h-860q-31 0 -51.5 20t-20.5 51zM102 829v164q0 31 20.5 51.5t51.5 20.5h860q31 0 51.5 -20.5t20.5 -51.5v-164q0 -31 -20.5 -51t-51.5 -20h-860q-31 0 -51.5 20 t-20.5 51z" />
<glyph unicode="&#x3e;" horiz-adv-x="1208" d="M102 51v205q0 63 82 92l492 174v21l-492 174q-82 29 -82 92v205q0 37 25 50.5t57 0.5l881 -348q61 -24 61 -82v-205q0 -58 -61 -82l-881 -348q-32 -13 -57 0.5t-25 50.5z" />
<glyph unicode="?" horiz-adv-x="1484" d="M41 1024q0 86 43.5 165.5t125.5 144t216 103t301 38.5q166 0 302 -40t220 -106.5t129 -147.5t45 -167q0 -77 -23.5 -139t-61.5 -101.5t-85 -69.5t-96.5 -50.5t-92.5 -38t-76.5 -38.5t-45.5 -45q-35 -71 -82 -71h-297q-31 0 -51 20t-20 51q0 62 25.5 112.5t66 83.5 t89.5 60.5t98 51t89.5 47t66 56t25.5 71.5q0 51 -55.5 87t-169.5 36q-156 0 -225 -113q-26 -41 -53.5 -61.5t-69.5 -20.5h-256q-38 0 -60 22t-22 60zM492 102v144q0 38 32 70t70 32h205q38 0 70 -32t32 -70v-144q0 -38 -32 -70t-70 -32h-205q-38 0 -70 32t-32 70z" />
<glyph unicode="@" horiz-adv-x="2109" d="M102 717q0 183 70.5 345t195.5 280t305.5 186.5t391.5 68.5q209 0 391 -67.5t306 -180.5t195 -261.5t71 -309.5q0 -213 -137 -342t-355 -129q-63 0 -118 8.5t-88 20.5t-57 24t-34 20l-10 9h-10l-8.5 -8.5t-26.5 -20t-45 -25t-63.5 -19.5t-82.5 -9q-163 0 -271 114 t-108 296t107.5 295.5t271.5 113.5q55 0 101 -20.5t65 -41.5l19 -20h10v21q0 15 13 28t28 13h215q15 0 28 -13t13 -28v-500q30 -20 71 -20q52 0 87.5 55.5t35.5 177.5q0 107 -44.5 204t-123.5 170t-195 116t-251 43q-275 0 -444.5 -165.5t-169.5 -428.5q0 -127 45.5 -234 t130 -185t213 -121.5t286.5 -43.5q100 0 207.5 25.5t161.5 25.5h41q23 0 42 -19t19 -42v-154q0 -30 -15 -46.5t-48 -24.5q-248 -62 -469 -62q-211 0 -391.5 68.5t-305.5 187t-195.5 280.5t-70.5 345zM922 717q0 -83 41.5 -128.5t111.5 -45.5q27 0 55.5 12.5t43.5 25.5l14 13 v246q-51 51 -113 51q-70 0 -111.5 -45.5t-41.5 -128.5z" />
<glyph unicode="A" horiz-adv-x="1763" d="M6 72l574 1290q32 72 92 72h420q61 0 92 -70l573 -1292q6 -13 6 -25q0 -14 -9 -26q-16 -21 -48 -21h-348q-30 0 -55 20t-37 52l-72 184h-645l-72 -184q-12 -32 -37 -52t-55 -20h-328q-32 0 -48 21q-9 12 -9 26q0 12 6 25zM692 594h359l-164 410h-21z" />
<glyph unicode="B" horiz-adv-x="1740" d="M154 72v1290q0 31 20 51.5t51 20.5h738q153 0 271 -32t189.5 -88t107.5 -126.5t36 -153.5q0 -57 -21 -105.5t-51.5 -77t-60.5 -48.5t-51 -27l-21 -8v-20q6 -1 17.5 -4t43 -14.5t60.5 -26.5t64.5 -42t61 -59.5t43 -80t17.5 -101.5q0 -86 -38 -160.5t-112.5 -133.5 t-196.5 -92.5t-278 -33.5h-819q-31 0 -51 20.5t-20 51.5zM604 328h440q74 0 114 33.5t40 89.5t-39.5 89t-114.5 33h-440v-245zM604 901h359q67 0 100 27.5t33 75.5q0 102 -133 102h-359v-205z" />
<glyph unicode="C" horiz-adv-x="1761" d="M92 717q0 351 219.5 554.5t620.5 203.5q173 0 316.5 -43.5t233.5 -114.5t138.5 -157.5t48.5 -176.5q0 -38 -22 -60t-60 -22h-256q-43 0 -70 20t-53 62q-45 72 -107.5 113t-168.5 41q-172 0 -270.5 -108.5t-98.5 -311.5t98.5 -311.5t270.5 -108.5q201 0 297 174 q23 41 51.5 61.5t71.5 20.5h256q38 0 60 -22t22 -60q0 -75 -31 -148t-94.5 -138.5t-152.5 -116t-213 -80t-267 -29.5q-401 0 -620.5 203.5t-219.5 554.5z" />
<glyph unicode="D" d="M154 72v1290q0 31 20 51.5t51 20.5h645q406 0 623 -193.5t217 -523.5t-217 -523.5t-623 -193.5h-645q-31 0 -51 20.5t-20 51.5zM604 328h266q178 0 273.5 99t95.5 290t-95.5 290t-273.5 99h-266v-778z" />
<glyph unicode="E" horiz-adv-x="1617" d="M154 72v1290q0 31 20 51.5t51 20.5h1250q31 0 51 -20.5t20 -51.5v-205q0 -31 -20 -51.5t-51 -20.5h-871v-184h645q31 0 51.5 -20.5t20.5 -51.5v-204q0 -31 -20.5 -51.5t-51.5 -20.5h-645v-205h871q31 0 51 -20.5t20 -51.5v-204q0 -31 -20 -51.5t-51 -20.5h-1250 q-31 0 -51 20.5t-20 51.5z" />
<glyph unicode="F" horiz-adv-x="1556" d="M154 72v1290q0 31 20 51.5t51 20.5h1209q31 0 51 -20.5t20 -51.5v-205q0 -31 -20 -51.5t-51 -20.5h-830v-266h645q31 0 51.5 -20t20.5 -51v-205q0 -31 -20.5 -51.5t-51.5 -20.5h-645v-399q0 -31 -20.5 -51.5t-51.5 -20.5h-307q-31 0 -51 20.5t-20 51.5z" />
<glyph unicode="G" horiz-adv-x="1792" d="M92 717q0 351 219.5 554.5t620.5 203.5q139 0 260.5 -28.5t207.5 -75.5t147.5 -108t91.5 -127.5t30 -131.5q0 -38 -22.5 -60t-59.5 -22h-256q-61 0 -123 82q-30 42 -58.5 68t-84.5 45.5t-133 19.5q-172 0 -270.5 -108.5t-98.5 -311.5t98.5 -311.5t270.5 -108.5 q239 0 317 195h-229q-31 0 -51.5 20t-20.5 51v185q0 31 20.5 51t51.5 20h608q31 0 51.5 -20t20.5 -51v-175q0 -123 -53 -234t-149.5 -195.5t-243.5 -134.5t-322 -50q-401 0 -620.5 203.5t-219.5 554.5z" />
<glyph unicode="H" d="M154 72v1290q0 31 20 51.5t51 20.5h307q31 0 51.5 -20.5t20.5 -51.5v-481h594v481q0 31 20.5 51.5t51.5 20.5h307q31 0 51.5 -20.5t20.5 -51.5v-1290q0 -31 -20.5 -51.5t-51.5 -20.5h-307q-31 0 -51.5 20.5t-20.5 51.5v460h-594v-460q0 -31 -20.5 -51.5t-51.5 -20.5h-307 q-31 0 -51 20.5t-20 51.5z" />
<glyph unicode="I" horiz-adv-x="1126" d="M72 72v204q0 31 20 51.5t51 20.5h195v737h-195q-31 0 -51 20.5t-20 51.5v205q0 31 20 51.5t51 20.5h840q31 0 51.5 -20.5t20.5 -51.5v-205q0 -31 -20.5 -51.5t-51.5 -20.5h-195v-737h195q31 0 51.5 -20.5t20.5 -51.5v-204q0 -31 -20.5 -51.5t-51.5 -20.5h-840 q-31 0 -51 20.5t-20 51.5z" />
<glyph unicode="J" horiz-adv-x="1208" d="M41 51v225q0 31 20.5 51.5t51.5 20.5h112q21 0 72 -10t72 -10h20q107 0 166 59t59 166v809q0 31 20.5 51.5t51.5 20.5h307q31 0 51.5 -20.5t20.5 -51.5v-817q0 -565 -676 -565h-276q-31 0 -51.5 20t-20.5 51z" />
<glyph unicode="K" horiz-adv-x="1716" d="M154 72v1290q0 31 20 51.5t51 20.5h307q31 0 51.5 -20.5t20.5 -51.5v-461h154q78 0 117 25.5t67 77.5l195 358q20 36 48.5 54t84.5 18h317q36 0 50 -23.5t1 -48.5l-194 -358q-31 -57 -68 -103.5t-67 -72t-56 -42.5t-41 -22l-14 -6v-21q6 -2 16.5 -6t42.5 -24t63.5 -48.5 t74.5 -83.5t80 -124l204 -379q6 -12 6 -24t-7 -24q-14 -24 -50 -24h-317q-56 0 -84.5 18t-48.5 54l-205 379q-28 52 -67.5 77t-117.5 25h-184v-481q0 -31 -20.5 -51.5t-51.5 -20.5h-307q-31 0 -51 20.5t-20 51.5z" />
<glyph unicode="L" horiz-adv-x="1474" d="M154 72v1290q0 31 20 51.5t51 20.5h307q31 0 51.5 -20.5t20.5 -51.5v-1014h768q31 0 51.5 -20.5t20.5 -51.5v-204q0 -31 -20.5 -51.5t-51.5 -20.5h-1147q-31 0 -51 20.5t-20 51.5z" />
<glyph unicode="M" horiz-adv-x="2273" d="M154 72v1290q0 31 20 51.5t51 20.5h430q42 0 72 -22.5t41 -49.5l358 -870h21l358 870q11 27 41 49.5t72 22.5h430q31 0 51.5 -20.5t20.5 -51.5v-1290q0 -31 -20.5 -51.5t-51.5 -20.5h-307q-31 0 -51.5 20.5t-20.5 51.5v676h-20l-275 -676q-11 -27 -40.5 -49.5 t-71.5 -22.5h-248q-42 0 -72 22.5t-41 49.5l-276 676h-21v-676q0 -31 -20.5 -51.5t-51.5 -20.5h-307q-31 0 -51 20.5t-20 51.5z" />
<glyph unicode="N" horiz-adv-x="1822" d="M154 72v1290q0 31 20 51.5t51 20.5h348q35 0 65 -22t48 -50l512 -748h21v748q0 31 20 51.5t51 20.5h307q31 0 51.5 -20.5t20.5 -51.5v-1290q0 -31 -20.5 -51.5t-51.5 -20.5h-348q-35 0 -64.5 22t-47.5 50l-512 747h-21v-747q0 -31 -20.5 -51.5t-51.5 -20.5h-307 q-31 0 -51 20.5t-20 51.5z" />
<glyph unicode="O" horiz-adv-x="1863" d="M92 717q0 351 219.5 554.5t620.5 203.5t620.5 -203.5t219.5 -554.5t-219.5 -554.5t-620.5 -203.5t-620.5 203.5t-219.5 554.5zM563 717q0 -203 98.5 -311.5t270.5 -108.5t270 108t98 312t-98 312t-270 108t-270.5 -108.5t-98.5 -311.5z" />
<glyph unicode="P" horiz-adv-x="1699" d="M154 72v1290q0 31 20 51.5t51 20.5h717q176 0 312.5 -39.5t222 -110.5t129 -165.5t43.5 -207.5t-43.5 -207t-129 -165t-222 -110.5t-312.5 -39.5h-338v-317q0 -31 -20.5 -51.5t-51.5 -20.5h-307q-31 0 -51 20.5t-20 51.5zM604 717h338q113 0 174.5 53.5t61.5 140.5 t-62 141t-174 54h-338v-389z" />
<glyph unicode="Q" horiz-adv-x="1914" d="M92 717q0 351 219.5 554.5t620.5 203.5q402 0 621 -204t219 -556q0 -62 -15 -123t-36 -103t-42 -75.5t-36 -49.5l-15 -16v-20h174q31 0 51.5 -20.5t20.5 -51.5v-205q0 -31 -20.5 -51t-51.5 -20h-870q-200 0 -359.5 53t-264.5 150.5t-160.5 233t-55.5 300.5zM563 717 q0 -203 98.5 -311.5t270.5 -108.5t270 108t98 312t-98 312t-270 108t-270.5 -108.5t-98.5 -311.5z" />
<glyph unicode="R" horiz-adv-x="1767" d="M154 72v1290q0 31 20 51.5t51 20.5h748q164 0 293 -37.5t209 -102.5t121.5 -149t41.5 -182q0 -74 -28.5 -135.5t-69 -95.5t-81 -57.5t-69.5 -31.5l-28 -8v-21q4 -2 10.5 -5.5t28 -20.5t43.5 -40t52.5 -65t59.5 -94l175 -317q6 -12 6 -23q1 -13 -7 -25q-14 -24 -51 -24 h-317q-56 0 -84.5 18t-48.5 54l-174 317q-28 52 -67.5 77.5t-117.5 25.5h-266v-420q0 -31 -20.5 -51.5t-51.5 -20.5h-307q-31 0 -51 20.5t-20 51.5zM604 819h369q96 0 145 39.5t49 104.5t-49 104t-145 39h-369v-287z" />
<glyph unicode="S" horiz-adv-x="1628" d="M61 410q0 38 22 60t60 22h256q43 0 71 -20.5t52 -61.5q30 -50 95 -81.5t202 -31.5q141 0 209 40t68 93q0 32 -34 54.5t-91.5 36t-132 24.5t-157 24.5t-165 32t-157 52t-132 79t-91.5 117.5t-34 164q0 95 42.5 176.5t127 146t225 101.5t322.5 37q137 0 253 -25 t196.5 -67.5t137.5 -98.5t83.5 -116.5t26.5 -123.5q0 -38 -22 -59.5t-60 -21.5h-256q-43 0 -71.5 20t-51.5 61q-20 34 -77.5 63.5t-158.5 29.5q-128 0 -187 -35.5t-59 -87.5q0 -32 34 -54.5t91.5 -36t132 -24.5t157 -24.5t165 -32t157 -52t132 -79t91.5 -117.5t34 -164 q0 -95 -44.5 -178t-132.5 -149.5t-235 -105t-336 -38.5q-155 0 -282.5 25.5t-214.5 68.5t-147 101t-87 122.5t-27 133.5z" />
<glyph unicode="T" horiz-adv-x="1515" d="M31 1157v205q0 31 20 51.5t51 20.5h1311q31 0 51.5 -20.5t20.5 -51.5v-205q0 -31 -20.5 -51.5t-51.5 -20.5h-430v-1013q0 -31 -20.5 -51.5t-51.5 -20.5h-307q-31 0 -51.5 20.5t-20.5 51.5v1013h-430q-31 0 -51 20.5t-20 51.5z" />
<glyph unicode="U" d="M143 594v768q0 31 20.5 51.5t51.5 20.5h307q31 0 51.5 -20.5t20.5 -51.5v-768q0 -139 81 -218t226 -79t226 79t81 218v768q0 31 20.5 51.5t51.5 20.5h307q31 0 51.5 -20.5t20.5 -51.5v-766q0 -299 -194 -468t-564 -169q-375 0 -566.5 168t-191.5 467z" />
<glyph unicode="V" horiz-adv-x="1722" d="M6 1362q-6 13 -6 25q0 14 9 26q16 21 48 21h328q30 0 55 -20t37 -52l369 -932h20l359 932q12 32 37 52t55 20h348q32 0 48 -21q9 -12 9 -26q0 -12 -6 -25l-553 -1290q-31 -70 -92 -70l-420 -2q-60 0 -92 72z" />
<glyph unicode="W" horiz-adv-x="2404" d="M25 1362q-3 10 -3 19q0 17 12 31q18 22 42 22h327q37 0 61 -20t32 -52l215 -809h20l195 809q8 32 31.5 52t60.5 20h368q37 0 61 -20t32 -52l194 -809h21l215 809q8 32 31.5 52t60.5 20h328q25 0 43 -22q12 -14 11 -31q0 -9 -3 -19l-359 -1290q-21 -72 -92 -72h-409 q-37 0 -61 20t-32 52l-215 788h-20l-215 -788q-8 -32 -31.5 -52t-60.5 -20h-410q-71 0 -92 72z" />
<glyph unicode="X" horiz-adv-x="1638" d="M18 24q-8 12 -7 24q0 12 9 24l492 665l-451 625q-18 23 -1.5 47.5t53.5 24.5h348q41 0 72.5 -21.5t50.5 -50.5l225 -338h20l226 338q19 29 50.5 50.5t72.5 21.5h348q37 0 53 -24.5t-2 -47.5l-451 -625l492 -665q10 -12 10 -25q0 -11 -8 -23q-16 -24 -53 -24h-359 q-77 0 -123 72l-256 358h-20l-256 -358q-46 -72 -123 -72h-358q-38 0 -54 24z" />
<glyph unicode="Y" horiz-adv-x="1634" d="M7 1410q15 24 52 24h318q42 0 74.5 -22t48.5 -50l307 -502h20l308 502q16 28 48 50t74 22h318q37 0 52 -24q7 -12 7 -24t-8 -24l-584 -911v-379q0 -31 -20 -51.5t-51 -20.5h-307q-31 0 -51.5 20.5t-20.5 51.5v379l-584 911q-8 12 -8 24t7 24z" />
<glyph unicode="Z" horiz-adv-x="1536" d="M51 72v174q0 38 13.5 71t28 50.5t40.5 42.5l717 655v20h-707q-31 0 -51 20.5t-20 51.5v205q0 31 20 51.5t51 20.5h1250q31 0 51 -20.5t20 -51.5v-174q0 -39 -13 -71t-27.5 -49.5t-41.5 -43.5l-716 -655v-21h747q31 0 51.5 -20.5t20.5 -51.5v-204q0 -31 -20.5 -51.5 t-51.5 -20.5h-1290q-31 0 -51.5 20.5t-20.5 51.5z" />
<glyph unicode="[" horiz-adv-x="921" d="M174 -256v1782q0 31 20.5 51t51.5 20h583q31 0 51.5 -20t20.5 -51v-185q0 -31 -20.5 -51t-51.5 -20h-225v-1270h225q31 0 51.5 -20.5t20.5 -51.5v-184q0 -31 -20.5 -51.5t-51.5 -20.5h-583q-31 0 -51.5 20.5t-20.5 51.5z" />
<glyph unicode="\" horiz-adv-x="1265" d="M29 1362q-15 23 0 47.5t51 24.5h297q42 0 74.5 -22t48.5 -50l737 -1290q15 -23 0 -47.5t-51 -24.5h-297q-42 0 -74.5 22t-48.5 50z" />
<glyph unicode="]" horiz-adv-x="921" d="M20 -72q0 31 20.5 51.5t51.5 20.5h225v1270h-225q-31 0 -51.5 20t-20.5 51v185q0 31 20.5 51t51.5 20h584q31 0 51.5 -20t20.5 -51v-1782q0 -31 -20.5 -51.5t-51.5 -20.5h-584q-31 0 -51.5 20.5t-20.5 51.5v184z" />
<glyph unicode="^" horiz-adv-x="1224" d="M46.5 818q-12.5 19 2.5 42l338 512q40 62 102 62h246q63 0 103 -62l338 -512q15 -23 2.5 -42t-43.5 -19h-287q-57 0 -92 61l-133 225h-21l-133 -225q-35 -61 -92 -61h-287q-31 0 -43.5 19z" />
<glyph unicode="_" horiz-adv-x="1146" d="M20 -174q0 31 20.5 51.5t51.5 20.5h963q31 0 51 -20.5t20 -51.5v-184q0 -31 -20 -51.5t-51 -20.5h-963q-31 0 -51.5 20.5t-20.5 51.5v184z" />
<glyph unicode="`" horiz-adv-x="681" d="M87.5 1414.5q12.5 19.5 43.5 19.5h256q58 0 82 -62l123 -307q24 -61 -41 -61h-164q-29 0 -49 14t-43 47l-205 307q-15 23 -2.5 42.5z" />
<glyph unicode="a" horiz-adv-x="1763" d="M6 72l574 1290q32 72 92 72h420q61 0 92 -70l573 -1292q6 -13 6 -25q0 -14 -9 -26q-16 -21 -48 -21h-348q-30 0 -55 20t-37 52l-72 184h-645l-72 -184q-12 -32 -37 -52t-55 -20h-328q-32 0 -48 21q-9 12 -9 26q0 12 6 25zM692 594h359l-164 410h-21z" />
<glyph unicode="b" horiz-adv-x="1740" d="M154 72v1290q0 31 20 51.5t51 20.5h738q153 0 271 -32t189.5 -88t107.5 -126.5t36 -153.5q0 -57 -21 -105.5t-51.5 -77t-60.5 -48.5t-51 -27l-21 -8v-20q6 -1 17.5 -4t43 -14.5t60.5 -26.5t64.5 -42t61 -59.5t43 -80t17.5 -101.5q0 -86 -38 -160.5t-112.5 -133.5 t-196.5 -92.5t-278 -33.5h-819q-31 0 -51 20.5t-20 51.5zM604 328h440q74 0 114 33.5t40 89.5t-39.5 89t-114.5 33h-440v-245zM604 901h359q67 0 100 27.5t33 75.5q0 102 -133 102h-359v-205z" />
<glyph unicode="c" horiz-adv-x="1761" d="M92 717q0 351 219.5 554.5t620.5 203.5q173 0 316.5 -43.5t233.5 -114.5t138.5 -157.5t48.5 -176.5q0 -38 -22 -60t-60 -22h-256q-43 0 -70 20t-53 62q-45 72 -107.5 113t-168.5 41q-172 0 -270.5 -108.5t-98.5 -311.5t98.5 -311.5t270.5 -108.5q201 0 297 174 q23 41 51.5 61.5t71.5 20.5h256q38 0 60 -22t22 -60q0 -75 -31 -148t-94.5 -138.5t-152.5 -116t-213 -80t-267 -29.5q-401 0 -620.5 203.5t-219.5 554.5z" />
<glyph unicode="d" d="M154 72v1290q0 31 20 51.5t51 20.5h645q406 0 623 -193.5t217 -523.5t-217 -523.5t-623 -193.5h-645q-31 0 -51 20.5t-20 51.5zM604 328h266q178 0 273.5 99t95.5 290t-95.5 290t-273.5 99h-266v-778z" />
<glyph unicode="e" horiz-adv-x="1617" d="M154 72v1290q0 31 20 51.5t51 20.5h1250q31 0 51 -20.5t20 -51.5v-205q0 -31 -20 -51.5t-51 -20.5h-871v-184h645q31 0 51.5 -20.5t20.5 -51.5v-204q0 -31 -20.5 -51.5t-51.5 -20.5h-645v-205h871q31 0 51 -20.5t20 -51.5v-204q0 -31 -20 -51.5t-51 -20.5h-1250 q-31 0 -51 20.5t-20 51.5z" />
<glyph unicode="f" horiz-adv-x="1556" d="M154 72v1290q0 31 20 51.5t51 20.5h1209q31 0 51 -20.5t20 -51.5v-205q0 -31 -20 -51.5t-51 -20.5h-830v-266h645q31 0 51.5 -20t20.5 -51v-205q0 -31 -20.5 -51.5t-51.5 -20.5h-645v-399q0 -31 -20.5 -51.5t-51.5 -20.5h-307q-31 0 -51 20.5t-20 51.5z" />
<glyph unicode="g" horiz-adv-x="1792" d="M92 717q0 351 219.5 554.5t620.5 203.5q139 0 260.5 -28.5t207.5 -75.5t147.5 -108t91.5 -127.5t30 -131.5q0 -38 -22.5 -60t-59.5 -22h-256q-61 0 -123 82q-30 42 -58.5 68t-84.5 45.5t-133 19.5q-172 0 -270.5 -108.5t-98.5 -311.5t98.5 -311.5t270.5 -108.5 q239 0 317 195h-229q-31 0 -51.5 20t-20.5 51v185q0 31 20.5 51t51.5 20h608q31 0 51.5 -20t20.5 -51v-175q0 -123 -53 -234t-149.5 -195.5t-243.5 -134.5t-322 -50q-401 0 -620.5 203.5t-219.5 554.5z" />
<glyph unicode="h" d="M154 72v1290q0 31 20 51.5t51 20.5h307q31 0 51.5 -20.5t20.5 -51.5v-481h594v481q0 31 20.5 51.5t51.5 20.5h307q31 0 51.5 -20.5t20.5 -51.5v-1290q0 -31 -20.5 -51.5t-51.5 -20.5h-307q-31 0 -51.5 20.5t-20.5 51.5v460h-594v-460q0 -31 -20.5 -51.5t-51.5 -20.5h-307 q-31 0 -51 20.5t-20 51.5z" />
<glyph unicode="i" horiz-adv-x="1126" d="M72 72v204q0 31 20 51.5t51 20.5h195v737h-195q-31 0 -51 20.5t-20 51.5v205q0 31 20 51.5t51 20.5h840q31 0 51.5 -20.5t20.5 -51.5v-205q0 -31 -20.5 -51.5t-51.5 -20.5h-195v-737h195q31 0 51.5 -20.5t20.5 -51.5v-204q0 -31 -20.5 -51.5t-51.5 -20.5h-840 q-31 0 -51 20.5t-20 51.5z" />
<glyph unicode="j" horiz-adv-x="1208" d="M41 51v225q0 31 20.5 51.5t51.5 20.5h112q21 0 72 -10t72 -10h20q107 0 166 59t59 166v809q0 31 20.5 51.5t51.5 20.5h307q31 0 51.5 -20.5t20.5 -51.5v-817q0 -565 -676 -565h-276q-31 0 -51.5 20t-20.5 51z" />
<glyph unicode="k" horiz-adv-x="1716" d="M154 72v1290q0 31 20 51.5t51 20.5h307q31 0 51.5 -20.5t20.5 -51.5v-461h154q78 0 117 25.5t67 77.5l195 358q20 36 48.5 54t84.5 18h317q36 0 50 -23.5t1 -48.5l-194 -358q-31 -57 -68 -103.5t-67 -72t-56 -42.5t-41 -22l-14 -6v-21q6 -2 16.5 -6t42.5 -24t63.5 -48.5 t74.5 -83.5t80 -124l204 -379q6 -12 6 -24t-7 -24q-14 -24 -50 -24h-317q-56 0 -84.5 18t-48.5 54l-205 379q-28 52 -67.5 77t-117.5 25h-184v-481q0 -31 -20.5 -51.5t-51.5 -20.5h-307q-31 0 -51 20.5t-20 51.5z" />
<glyph unicode="l" horiz-adv-x="1474" d="M154 72v1290q0 31 20 51.5t51 20.5h307q31 0 51.5 -20.5t20.5 -51.5v-1014h768q31 0 51.5 -20.5t20.5 -51.5v-204q0 -31 -20.5 -51.5t-51.5 -20.5h-1147q-31 0 -51 20.5t-20 51.5z" />
<glyph unicode="m" horiz-adv-x="2273" d="M154 72v1290q0 31 20 51.5t51 20.5h430q42 0 72 -22.5t41 -49.5l358 -870h21l358 870q11 27 41 49.5t72 22.5h430q31 0 51.5 -20.5t20.5 -51.5v-1290q0 -31 -20.5 -51.5t-51.5 -20.5h-307q-31 0 -51.5 20.5t-20.5 51.5v676h-20l-275 -676q-11 -27 -40.5 -49.5 t-71.5 -22.5h-248q-42 0 -72 22.5t-41 49.5l-276 676h-21v-676q0 -31 -20.5 -51.5t-51.5 -20.5h-307q-31 0 -51 20.5t-20 51.5z" />
<glyph unicode="n" horiz-adv-x="1822" d="M154 72v1290q0 31 20 51.5t51 20.5h348q35 0 65 -22t48 -50l512 -748h21v748q0 31 20 51.5t51 20.5h307q31 0 51.5 -20.5t20.5 -51.5v-1290q0 -31 -20.5 -51.5t-51.5 -20.5h-348q-35 0 -64.5 22t-47.5 50l-512 747h-21v-747q0 -31 -20.5 -51.5t-51.5 -20.5h-307 q-31 0 -51 20.5t-20 51.5z" />
<glyph unicode="o" horiz-adv-x="1863" d="M92 717q0 351 219.5 554.5t620.5 203.5t620.5 -203.5t219.5 -554.5t-219.5 -554.5t-620.5 -203.5t-620.5 203.5t-219.5 554.5zM563 717q0 -203 98.5 -311.5t270.5 -108.5t270 108t98 312t-98 312t-270 108t-270.5 -108.5t-98.5 -311.5z" />
<glyph unicode="p" horiz-adv-x="1699" d="M154 72v1290q0 31 20 51.5t51 20.5h717q176 0 312.5 -39.5t222 -110.5t129 -165.5t43.5 -207.5t-43.5 -207t-129 -165t-222 -110.5t-312.5 -39.5h-338v-317q0 -31 -20.5 -51.5t-51.5 -20.5h-307q-31 0 -51 20.5t-20 51.5zM604 717h338q113 0 174.5 53.5t61.5 140.5 t-62 141t-174 54h-338v-389z" />
<glyph unicode="q" horiz-adv-x="1914" d="M92 717q0 351 219.5 554.5t620.5 203.5q402 0 621 -204t219 -556q0 -62 -15 -123t-36 -103t-42 -75.5t-36 -49.5l-15 -16v-20h174q31 0 51.5 -20.5t20.5 -51.5v-205q0 -31 -20.5 -51t-51.5 -20h-870q-200 0 -359.5 53t-264.5 150.5t-160.5 233t-55.5 300.5zM563 717 q0 -203 98.5 -311.5t270.5 -108.5t270 108t98 312t-98 312t-270 108t-270.5 -108.5t-98.5 -311.5z" />
<glyph unicode="r" horiz-adv-x="1767" d="M154 72v1290q0 31 20 51.5t51 20.5h748q164 0 293 -37.5t209 -102.5t121.5 -149t41.5 -182q0 -74 -28.5 -135.5t-69 -95.5t-81 -57.5t-69.5 -31.5l-28 -8v-21q4 -2 10.5 -5.5t28 -20.5t43.5 -40t52.5 -65t59.5 -94l175 -317q6 -12 6 -23q1 -13 -7 -25q-14 -24 -51 -24 h-317q-56 0 -84.5 18t-48.5 54l-174 317q-28 52 -67.5 77.5t-117.5 25.5h-266v-420q0 -31 -20.5 -51.5t-51.5 -20.5h-307q-31 0 -51 20.5t-20 51.5zM604 819h369q96 0 145 39.5t49 104.5t-49 104t-145 39h-369v-287z" />
<glyph unicode="s" horiz-adv-x="1628" d="M61 410q0 38 22 60t60 22h256q43 0 71 -20.5t52 -61.5q30 -50 95 -81.5t202 -31.5q141 0 209 40t68 93q0 32 -34 54.5t-91.5 36t-132 24.5t-157 24.5t-165 32t-157 52t-132 79t-91.5 117.5t-34 164q0 95 42.5 176.5t127 146t225 101.5t322.5 37q137 0 253 -25 t196.5 -67.5t137.5 -98.5t83.5 -116.5t26.5 -123.5q0 -38 -22 -59.5t-60 -21.5h-256q-43 0 -71.5 20t-51.5 61q-20 34 -77.5 63.5t-158.5 29.5q-128 0 -187 -35.5t-59 -87.5q0 -32 34 -54.5t91.5 -36t132 -24.5t157 -24.5t165 -32t157 -52t132 -79t91.5 -117.5t34 -164 q0 -95 -44.5 -178t-132.5 -149.5t-235 -105t-336 -38.5q-155 0 -282.5 25.5t-214.5 68.5t-147 101t-87 122.5t-27 133.5z" />
<glyph unicode="t" horiz-adv-x="1515" d="M31 1157v205q0 31 20 51.5t51 20.5h1311q31 0 51.5 -20.5t20.5 -51.5v-205q0 -31 -20.5 -51.5t-51.5 -20.5h-430v-1013q0 -31 -20.5 -51.5t-51.5 -20.5h-307q-31 0 -51.5 20.5t-20.5 51.5v1013h-430q-31 0 -51 20.5t-20 51.5z" />
<glyph unicode="u" d="M143 594v768q0 31 20.5 51.5t51.5 20.5h307q31 0 51.5 -20.5t20.5 -51.5v-768q0 -139 81 -218t226 -79t226 79t81 218v768q0 31 20.5 51.5t51.5 20.5h307q31 0 51.5 -20.5t20.5 -51.5v-766q0 -299 -194 -468t-564 -169q-375 0 -566.5 168t-191.5 467z" />
<glyph unicode="v" horiz-adv-x="1722" d="M6 1362q-6 13 -6 25q0 14 9 26q16 21 48 21h328q30 0 55 -20t37 -52l369 -932h20l359 932q12 32 37 52t55 20h348q32 0 48 -21q9 -12 9 -26q0 -12 -6 -25l-553 -1290q-31 -70 -92 -70l-420 -2q-60 0 -92 72z" />
<glyph unicode="w" horiz-adv-x="2404" d="M25 1362q-3 10 -3 19q0 17 12 31q18 22 42 22h327q37 0 61 -20t32 -52l215 -809h20l195 809q8 32 31.5 52t60.5 20h368q37 0 61 -20t32 -52l194 -809h21l215 809q8 32 31.5 52t60.5 20h328q25 0 43 -22q12 -14 11 -31q0 -9 -3 -19l-359 -1290q-21 -72 -92 -72h-409 q-37 0 -61 20t-32 52l-215 788h-20l-215 -788q-8 -32 -31.5 -52t-60.5 -20h-410q-71 0 -92 72z" />
<glyph unicode="x" horiz-adv-x="1638" d="M18 24q-8 12 -7 24q0 12 9 24l492 665l-451 625q-18 23 -1.5 47.5t53.5 24.5h348q41 0 72.5 -21.5t50.5 -50.5l225 -338h20l226 338q19 29 50.5 50.5t72.5 21.5h348q37 0 53 -24.5t-2 -47.5l-451 -625l492 -665q10 -12 10 -25q0 -11 -8 -23q-16 -24 -53 -24h-359 q-77 0 -123 72l-256 358h-20l-256 -358q-46 -72 -123 -72h-358q-38 0 -54 24z" />
<glyph unicode="y" horiz-adv-x="1634" d="M7 1410q15 24 52 24h318q42 0 74.5 -22t48.5 -50l307 -502h20l308 502q16 28 48 50t74 22h318q37 0 52 -24q7 -12 7 -24t-8 -24l-584 -911v-379q0 -31 -20 -51.5t-51 -20.5h-307q-31 0 -51.5 20.5t-20.5 51.5v379l-584 911q-8 12 -8 24t7 24z" />
<glyph unicode="z" horiz-adv-x="1536" d="M51 72v174q0 38 13.5 71t28 50.5t40.5 42.5l717 655v20h-707q-31 0 -51 20.5t-20 51.5v205q0 31 20 51.5t51 20.5h1250q31 0 51 -20.5t20 -51.5v-174q0 -39 -13 -71t-27.5 -49.5t-41.5 -43.5l-716 -655v-21h747q31 0 51.5 -20.5t20.5 -51.5v-204q0 -31 -20.5 -51.5 t-51.5 -20.5h-1290q-31 0 -51.5 20.5t-20.5 51.5z" />
<glyph unicode="{" horiz-adv-x="972" d="M41 532v205q0 31 20.5 51.5t51.5 20.5h30q53 0 88 33t35 80v204q0 471 574 471h41q31 0 51 -20t20 -51v-185q0 -31 -20 -51t-51 -20h-41q-62 0 -103 -41t-41 -103v-204q0 -60 -22.5 -111t-54 -80t-63.5 -50t-54 -29l-23 -7v-20q9 -3 23.5 -8t52 -27.5t66 -51t52 -79.5 t23.5 -111v-205q0 -61 41 -102t103 -41h41q31 0 51 -20.5t20 -51.5v-184q0 -31 -20 -51.5t-51 -20.5h-41q-574 0 -574 471v205q0 47 -35 80t-88 33h-30q-31 0 -51.5 20t-20.5 51z" />
<glyph unicode="|" horiz-adv-x="757" d="M164 -236v1905q0 31 20.5 51.5t51.5 20.5h286q31 0 51.5 -20.5t20.5 -51.5v-1905q0 -31 -20.5 -51t-51.5 -20h-286q-31 0 -51.5 20t-20.5 51z" />
<glyph unicode="}" horiz-adv-x="972" d="M20 -72q0 31 20.5 51.5t51.5 20.5h41q61 0 102 41t41 102v205q0 44 12 83t31 66t42 50t46 37t42 23.5t31 13.5l12 4v20q-9 3 -23.5 8t-51.5 27.5t-65.5 51t-52 79.5t-23.5 111v204q0 62 -41 103t-102 41h-41q-31 0 -51.5 20t-20.5 51v185q0 31 20.5 51t51.5 20h41 q574 0 574 -471v-204q0 -47 34.5 -80t87.5 -33h31q31 0 51.5 -20.5t20.5 -51.5v-205q0 -31 -20.5 -51t-51.5 -20h-31q-53 0 -87.5 -33t-34.5 -80v-205q0 -471 -574 -471h-41q-31 0 -51.5 20.5t-20.5 51.5v184z" />
<glyph unicode="~" horiz-adv-x="1320" d="M82 870q0 31 20.5 51.5t51.5 20.5h215q34 0 54 -21t27.5 -45.5t27.5 -45.5t54 -21q22 0 56.5 22.5t70 49t100.5 49t142 22.5q142 0 240 -109.5t98 -289.5q0 -31 -20.5 -51.5t-51.5 -20.5h-215q-34 0 -54.5 21t-27.5 45.5t-27.5 45.5t-54.5 21q-22 0 -56.5 -22.5 t-69.5 -49t-100 -49t-142 -22.5q-142 0 -240 109.5t-98 289.5z" />
<glyph unicode="&#xa7;" horiz-adv-x="1402" d="M92 -72q0 31 20.5 51.5t51.5 20.5h246q28 0 48.5 -10.5t36 -25.5t34.5 -30t54 -25.5t83 -10.5q99 0 151.5 34t52.5 78q0 31 -32 53t-84.5 34t-119.5 27.5t-137.5 30t-137.5 44.5t-119.5 69t-84.5 104.5t-32 149.5q0 55 18 101.5t43.5 73.5t51 46.5t43.5 26.5l18 8v21 q-7 2 -18 7.5t-39 28.5t-50 52t-39.5 82t-17.5 116q0 75 37.5 143.5t109 124.5t187.5 89t260 33q107 0 197.5 -19.5t153.5 -52.5t107 -76.5t64.5 -91.5t20.5 -98q0 -31 -20.5 -51.5t-51.5 -20.5h-246q-28 0 -49 10.5t-36.5 25.5t-32 30t-43.5 25.5t-64 10.5 q-72 0 -113 -30.5t-41 -71.5q0 -28 25 -48t67 -33t96.5 -24.5t114.5 -25t120.5 -31t115 -47t96.5 -68.5t67 -99.5t25 -135.5q0 -55 -18 -101.5t-43.5 -73.5t-51 -46.5t-43.5 -27.5l-18 -7v-21q8 -2 20 -7.5t44 -28.5t56.5 -52t44.5 -82t20 -116q0 -75 -40 -145t-116.5 -128 t-203 -92.5t-285.5 -34.5q-144 0 -257 29.5t-180.5 78.5t-102 107.5t-34.5 122.5zM563 543q0 -32 23 -56t56.5 -36t66.5 -20t56 -9l23 -2q3 1 8 3.5t17 12t21.5 21.5t17.5 32t8 43q0 32 -23 56t-56 36t-66.5 20t-56.5 10l-23 1q-3 -1 -8 -3.5t-17 -12t-21.5 -21.5t-17.5 -32 t-8 -43z" />
<glyph unicode="&#xa9;" horiz-adv-x="2129" d="M102 717q0 183 70.5 345t195.5 280t305.5 186.5t391.5 68.5t391.5 -68.5t305.5 -186.5t195.5 -280t70.5 -345t-70.5 -345t-195.5 -280.5t-305.5 -187t-391.5 -68.5t-391.5 68.5t-305.5 187t-195.5 280.5t-70.5 345zM451 717q0 -263 169.5 -428.5t444.5 -165.5 t444.5 165.5t169.5 428.5t-169.5 428.5t-444.5 165.5t-444.5 -165.5t-169.5 -428.5zM625 717q0 188 120.5 298.5t339.5 110.5q183 0 291.5 -85.5t108.5 -200.5q0 -15 -13 -28t-30 -13h-182q-12 0 -21 2t-17 7.5t-12 9t-11.5 11.5t-10.5 11q-51 51 -103 51 q-70 0 -111.5 -45.5t-41.5 -128.5t41.5 -128.5t111.5 -45.5q74 0 113 61q25 41 72 41h182q17 0 30 -13t13 -28q0 -123 -110 -210t-300 -87q-219 0 -339.5 111t-120.5 299z" />
<glyph unicode="&#xab;" horiz-adv-x="1212" d="M61 532.5q0 33.5 25 71.5l174 277q39 61 92 61h236q24 0 34 -19t-4 -42l-225 -349l225 -348q14 -23 4 -42t-34 -19h-236q-53 0 -92 61l-174 277q-25 38 -25 71.5zM563 532.5q0 33.5 25 71.5l174 277q39 61 92 61h236q24 0 34 -19t-4 -42l-225 -349l225 -348q14 -23 4 -42 t-34 -19h-236q-53 0 -92 61l-174 277q-25 38 -25 71.5z" />
<glyph unicode="&#xac;" horiz-adv-x="1290" d="M82 707v184q0 31 20.5 51.5t51.5 20.5h962q31 0 51.5 -20.5t20.5 -51.5v-451q0 -31 -20.5 -51t-51.5 -20h-246q-31 0 -51 20t-20 51v195h-645q-31 0 -51.5 20.5t-20.5 51.5z" />
<glyph unicode="&#xad;" horiz-adv-x="1187" d="M82 584v184q0 31 20.5 51.5t51.5 20.5h880q31 0 51.5 -20.5t20.5 -51.5v-184q0 -31 -20.5 -51.5t-51.5 -20.5h-880q-31 0 -51.5 20.5t-20.5 51.5z" />
<glyph unicode="&#xae;" horiz-adv-x="2129" d="M102 717q0 183 70.5 345t195.5 280t305.5 186.5t391.5 68.5t391.5 -68.5t305.5 -186.5t195.5 -280t70.5 -345t-70.5 -345t-195.5 -280.5t-305.5 -187t-391.5 -68.5t-391.5 68.5t-305.5 187t-195.5 280.5t-70.5 345zM451 717q0 -263 169.5 -428.5t444.5 -165.5 t444.5 165.5t169.5 428.5t-169.5 428.5t-444.5 165.5t-444.5 -165.5t-169.5 -428.5zM666 369v696q0 15 13 28t28 13h378q197 0 298.5 -75.5t101.5 -190.5q0 -40 -18 -74t-43.5 -53.5t-51 -33.5t-43.5 -19l-18 -5v-10q7 -2 19 -8t42 -32t51 -62l103 -174q8 -16 -0.5 -28.5 t-30.5 -12.5h-225q-52 0 -72 41l-102 174q-23 41 -80 41h-53v-215q0 -15 -13 -28t-28 -13h-217q-14 0 -26.5 13t-12.5 28zM963 778h122q37 0 59.5 18.5t22.5 43.5t-22.5 43t-59.5 18h-122v-123z" />
<glyph unicode="&#xb0;" horiz-adv-x="880" d="M61 1126q0 148 106.5 248.5t272.5 100.5t272.5 -100.5t106.5 -248.5t-106 -248t-273 -100t-273 100t-106 248zM328 1126q0 -60 32.5 -96.5t79.5 -36.5t80 36.5t33 96.5t-33 97t-80 37t-79.5 -37t-32.5 -97z" />
<glyph unicode="&#xb1;" horiz-adv-x="1290" d="M102 686v184q0 31 20.5 51.5t51.5 20.5h307v307q0 31 20.5 51.5t51.5 20.5h184q31 0 51.5 -20.5t20.5 -51.5v-307h307q31 0 51.5 -20.5t20.5 -51.5v-184q0 -31 -20.5 -51.5t-51.5 -20.5h-307v-225h287q31 0 51 -20.5t20 -51.5v-163q0 -31 -20 -51.5t-51 -20.5h-901 q-31 0 -51.5 20.5t-20.5 51.5v163q0 31 20.5 51.5t51.5 20.5h286v225h-307q-31 0 -51.5 20.5t-20.5 51.5z" />
<glyph unicode="&#xb5;" horiz-adv-x="1454" d="M123 -307v1313q0 23 19 42t42 19h287q23 0 42 -19t19 -42v-574q0 -78 47 -122t138 -44q45 0 96.5 21t80.5 42l28 21v656q0 23 19 42t42 19h287q23 0 42 -19t19 -42v-943q0 -23 -19 -42t-42 -19h-287q-23 0 -42 19t-19 42v21h-21q-3 -4 -10 -11t-31 -25t-52 -32t-74.5 -25 t-98.5 -11q-27 0 -53 5.5t-38 10.5l-12 6v-309q0 -23 -19 -42.5t-42 -19.5h-287q-23 0 -42 19.5t-19 42.5z" />
<glyph unicode="&#xb6;" horiz-adv-x="1525" d="M41 1044q0 163 117.5 276.5t292.5 113.5h983q31 0 51 -20.5t20 -51.5v-205q0 -31 -20 -51.5t-51 -20.5h-123v-1382q0 -31 -20.5 -51.5t-51.5 -20.5h-225q-31 0 -51.5 20.5t-20.5 51.5v1382h-123v-1382q0 -31 -20 -51.5t-51 -20.5h-226q-31 0 -51 20.5t-20 51.5v952 q-175 0 -292.5 113t-117.5 276z" />
<glyph unicode="&#xb7;" horiz-adv-x="675" d="M133 625v143q0 38 32.5 70t70.5 32h204q38 0 70.5 -32t32.5 -70v-143q0 -38 -32.5 -70.5t-70.5 -32.5h-204q-38 0 -70.5 32.5t-32.5 70.5z" />
<glyph unicode="&#xbb;" horiz-adv-x="1212" d="M88.5 142q-10.5 19 3.5 42l225 348l-225 349q-14 23 -3.5 42t34.5 19h235q54 0 93 -61l174 -277q25 -38 25 -71.5t-25 -71.5l-174 -277q-39 -61 -93 -61h-235q-24 0 -34.5 19zM590.5 142q-10.5 19 3.5 42l225 348l-225 349q-14 23 -3.5 42t34.5 19h235q53 0 92 -61 l174 -277q25 -38 25 -71.5t-25 -71.5l-174 -277q-39 -61 -92 -61h-235q-24 0 -34.5 19z" />
<glyph unicode="&#x401;" horiz-adv-x="1617" d="M154 72q0 -31 20 -51.5t51 -20.5h1250q31 0 51 20.5t20 51.5v204q0 31 -20 51.5t-51 20.5h-871v205h645q31 0 51.5 20.5t20.5 51.5v204q0 31 -20.5 51.5t-51.5 20.5h-645v184h871q31 0 51 20.5t20 51.5v205q0 31 -20 51.5t-51 20.5h-1250q-31 0 -51 -20.5t-20 -51.5 v-1290zM389 1690v143q0 38 32.5 70t70.5 32h184q38 0 70 -32t32 -70v-143q0 -38 -32 -70.5t-70 -32.5h-184q-38 0 -70.5 32.5t-32.5 70.5zM922 1690v143q0 38 32 70t70 32h184q38 0 70.5 -32t32.5 -70v-143q0 -38 -32.5 -70.5t-70.5 -32.5h-184q-38 0 -70 32.5t-32 70.5z " />
<glyph unicode="&#x402;" horiz-adv-x="1812" d="M0 1157v205q0 31 20.5 51.5t51.5 20.5h1024q31 0 51 -20.5t20 -51.5v-205q0 -31 -20 -51.5t-51 -20.5h-287v-184q153 41 317 41q150 0 271.5 -39.5t200.5 -108t121 -159.5t42 -195q0 -226 -137.5 -353.5t-394.5 -127.5q-76 0 -162 21q-33 8 -48 24.5t-15 46.5v215 q0 23 19 42.5t42 19.5h20q15 0 41 -5.5t41 -5.5q68 0 106 34t38 89q0 67 -61.5 110.5t-184.5 43.5q-55 0 -119 -10t-100 -20l-37 -11v-481q0 -31 -20.5 -51.5t-51.5 -20.5h-307q-31 0 -51.5 20.5t-20.5 51.5v1013h-286q-31 0 -51.5 20.5t-20.5 51.5z" />
<glyph unicode="&#x403;" horiz-adv-x="1464" d="M154 72q0 -31 20 -51.5t51 -20.5h307q31 0 51.5 20.5t20.5 51.5v1013h768q31 0 51.5 20.5t20.5 51.5v205q0 31 -20.5 51.5t-51.5 20.5h-1147q-31 0 -51 -20.5t-20 -51.5v-1290zM666 1659l122 307q24 62 82 62h256q31 0 43.5 -19.5t-2.5 -42.5l-204 -307 q-23 -33 -43.5 -47.5t-49.5 -14.5h-163q-65 0 -41 62z" />
<glyph unicode="&#x404;" horiz-adv-x="1761" d="M92 717q0 351 219.5 554.5t620.5 203.5q173 0 316.5 -43.5t233.5 -114.5t138.5 -157.5t48.5 -176.5q0 -38 -22 -60t-60 -22h-256q-43 0 -70 20t-53 62q-45 72 -107.5 113t-168.5 41q-263 0 -348 -256h491q31 0 51.5 -20.5t20.5 -51.5v-184q0 -31 -20.5 -51.5t-51.5 -20.5 h-491q33 -115 121 -185.5t227 -70.5q201 0 297 174q23 41 51.5 61.5t71.5 20.5h256q38 0 60 -22t22 -60q0 -75 -31 -148t-94.5 -138.5t-152.5 -116t-213 -80t-267 -29.5q-401 0 -620.5 203.5t-219.5 554.5z" />
<glyph unicode="&#x405;" horiz-adv-x="1628" d="M61 410q0 38 22 60t60 22h256q43 0 71 -20.5t52 -61.5q30 -50 95 -81.5t202 -31.5q141 0 209 40t68 93q0 32 -34 54.5t-91.5 36t-132 24.5t-157 24.5t-165 32t-157 52t-132 79t-91.5 117.5t-34 164q0 95 42.5 176.5t127 146t225 101.5t322.5 37q137 0 253 -25 t196.5 -67.5t137.5 -98.5t83.5 -116.5t26.5 -123.5q0 -38 -22 -59.5t-60 -21.5h-256q-43 0 -71.5 20t-51.5 61q-20 34 -77.5 63.5t-158.5 29.5q-128 0 -187 -35.5t-59 -87.5q0 -32 34 -54.5t91.5 -36t132 -24.5t157 -24.5t165 -32t157 -52t132 -79t91.5 -117.5t34 -164 q0 -95 -44.5 -178t-132.5 -149.5t-235 -105t-336 -38.5q-155 0 -282.5 25.5t-214.5 68.5t-147 101t-87 122.5t-27 133.5z" />
<glyph unicode="&#x406;" horiz-adv-x="1126" d="M72 72v204q0 31 20 51.5t51 20.5h195v737h-195q-31 0 -51 20.5t-20 51.5v205q0 31 20 51.5t51 20.5h840q31 0 51.5 -20.5t20.5 -51.5v-205q0 -31 -20.5 -51.5t-51.5 -20.5h-195v-737h195q31 0 51.5 -20.5t20.5 -51.5v-204q0 -31 -20.5 -51.5t-51.5 -20.5h-840 q-31 0 -51 20.5t-20 51.5z" />
<glyph unicode="&#x407;" horiz-adv-x="1126" d="M72 72q0 -31 20 -51.5t51 -20.5h840q31 0 51.5 20.5t20.5 51.5v204q0 31 -20.5 51.5t-51.5 20.5h-195v737h195q31 0 51.5 20.5t20.5 51.5v205q0 31 -20.5 51.5t-51.5 20.5h-840q-31 0 -51 -20.5t-20 -51.5v-205q0 -31 20 -51.5t51 -20.5h195v-737h-195q-31 0 -51 -20.5 t-20 -51.5v-204zM102 1700v143q0 38 32.5 70.5t70.5 32.5h184q38 0 70.5 -32.5t32.5 -70.5v-143q0 -38 -32.5 -70.5t-70.5 -32.5h-184q-38 0 -70.5 32.5t-32.5 70.5zM635 1700v143q0 38 32 70.5t70 32.5h185q38 0 70 -32.5t32 -70.5v-143q0 -38 -32 -70.5t-70 -32.5h-185 q-38 0 -70 32.5t-32 70.5z" />
<glyph unicode="&#x408;" horiz-adv-x="1208" d="M41 51v225q0 31 20.5 51.5t51.5 20.5h112q21 0 72 -10t72 -10h20q107 0 166 59t59 166v809q0 31 20.5 51.5t51.5 20.5h307q31 0 51.5 -20.5t20.5 -51.5v-817q0 -565 -676 -565h-276q-31 0 -51.5 20t-20.5 51z" />
<glyph unicode="&#x409;" horiz-adv-x="2664" d="M43 72l205 829q64 258 232 395.5t464 137.5h604q31 0 51.5 -20.5t20.5 -51.5v-358h317q339 0 512.5 -138t173.5 -364t-173.5 -364t-512.5 -138h-696q-31 0 -51.5 20.5t-20.5 51.5v1013h-225q-188 0 -235 -184l-205 -829q-8 -31 -29.5 -51.5t-50.5 -20.5h-309 q-38 0 -59 21t-13 51zM1620 328h317q104 0 159.5 47.5t55.5 126.5t-55.5 126.5t-159.5 47.5h-317v-348z" />
<glyph unicode="&#x40a;" horiz-adv-x="2672" d="M154 72v1290q0 31 20 51.5t51 20.5h307q31 0 51.5 -20.5t20.5 -51.5v-420h574v420q0 31 20 51.5t51 20.5h307q31 0 51.5 -20.5t20.5 -51.5v-420h348q165 0 292 -36t205.5 -100t118.5 -148.5t40 -186.5t-40 -186.5t-118.5 -148.5t-205.5 -100t-292 -36h-727 q-31 0 -51 20.5t-20 51.5v522h-574v-522q0 -31 -20.5 -51.5t-51.5 -20.5h-307q-31 0 -51 20.5t-20 51.5zM1628 328h348q89 0 137 39.5t48 103.5t-48 103.5t-137 39.5h-348v-286z" />
<glyph unicode="&#x40b;" horiz-adv-x="1843" d="M0 1157v205q0 31 20.5 51.5t51.5 20.5h1024q31 0 51 -20.5t20 -51.5v-205q0 -31 -20 -51.5t-51 -20.5h-287v-184q133 41 297 41q302 0 468.5 -151t166.5 -402v-317q0 -31 -20.5 -51.5t-51.5 -20.5h-307q-31 0 -51.5 20.5t-20.5 51.5v317q0 95 -63 150t-183 55 q-55 0 -113.5 -10t-90.5 -20l-31 -11v-481q0 -31 -20.5 -51.5t-51.5 -20.5h-307q-31 0 -51.5 20.5t-20.5 51.5v1013h-286q-31 0 -51.5 20.5t-20.5 51.5z" />
<glyph unicode="&#x40c;" horiz-adv-x="1716" d="M154 72v1290q0 31 20 51.5t51 20.5h307q31 0 51.5 -20.5t20.5 -51.5v-461h154q78 0 117 25.5t67 77.5l195 358q20 36 48.5 54t84.5 18h317q36 0 50 -23.5t1 -48.5l-194 -358q-31 -57 -68 -103.5t-67 -72t-56 -42.5t-41 -22l-14 -6v-21q6 -2 16.5 -6t42.5 -24t63.5 -48.5 t74.5 -83.5t80 -124l204 -379q13 -25 -1 -48.5t-50 -23.5h-317q-56 0 -84.5 18t-48.5 54l-205 379q-28 52 -67.5 77t-117.5 25h-184v-481q0 -31 -20.5 -51.5t-51.5 -20.5h-307q-31 0 -51 20.5t-20 51.5zM727 1618l123 307q24 62 82 62h256q31 0 43.5 -19.5t-2.5 -42.5 l-205 -307q-24 -33 -43.5 -47.5t-48.5 -14.5h-164q-65 0 -41 62z" />
<glyph unicode="&#x40e;" horiz-adv-x="1669" d="M6 1362l174 -420q48 -116 102.5 -198t128.5 -143t171.5 -90.5t222.5 -29.5h51l-10 -30q-13 -42 -54.5 -72.5t-99.5 -30.5h-20q-20 0 -72 10.5t-72 10.5h-92q-31 0 -51 -20.5t-20 -51.5v-225q0 -31 20 -51.5t51 -20.5h256q242 0 388 115.5t227 335.5l338 911 q11 31 -6.5 51.5t-55.5 20.5h-297q-37 0 -64 -20t-38 -52l-205 -543h-164q-111 0 -164 123l-174 420q-28 72 -102 72h-307q-38 0 -56 -20.5t-6 -51.5zM420 1905q0 15 13 28t28 13h194q22 0 35.5 -12t16.5 -29q8 -48 44.5 -80.5t88.5 -32.5t88.5 32.5t44.5 80.5q3 17 16 29 t35 12h195q15 0 28 -13t13 -28q0 -165 -112 -267t-308 -102t-308 102t-112 267z" />
<glyph unicode="&#x40f;" d="M154 72v1290q0 31 20 51.5t51 20.5h307q31 0 51.5 -20.5t20.5 -51.5v-1014h594v1014q0 31 20.5 51.5t51.5 20.5h307q31 0 51.5 -20.5t20.5 -51.5v-1290q0 -31 -20.5 -51.5t-51.5 -20.5h-451v-195q0 -31 -20 -51t-51 -20h-307q-31 0 -51.5 20t-20.5 51v195h-451 q-31 0 -51 20.5t-20 51.5z" />
<glyph unicode="&#x410;" horiz-adv-x="1763" d="M6 72l574 1290q32 72 92 72h420q61 0 92 -70l573 -1292q13 -30 -3 -51t-48 -21h-348q-30 0 -55 20t-37 52l-72 184h-645l-72 -184q-12 -32 -37 -52t-55 -20h-328q-32 0 -48 21t-3 51zM692 594h359l-164 410h-21z" />
<glyph unicode="&#x411;" horiz-adv-x="1710" d="M154 72v1290q0 31 20 51.5t51 20.5h1229q31 0 51.5 -20.5t20.5 -51.5v-205q0 -31 -20.5 -51.5t-51.5 -20.5h-850v-163h410q157 0 280 -36t199.5 -99t116 -145.5t39.5 -180.5t-39.5 -180.5t-116 -145.5t-199.5 -99t-280 -36h-789q-31 0 -51 20.5t-20 51.5zM604 328h410 q74 0 119 38.5t45 94.5t-45 94.5t-119 38.5h-410v-266z" />
<glyph unicode="&#x412;" horiz-adv-x="1740" d="M154 72v1290q0 31 20 51.5t51 20.5h738q153 0 271 -32t189.5 -88t107.5 -126.5t36 -153.5q0 -57 -21 -105.5t-51.5 -77t-60.5 -48.5t-51 -27l-21 -8v-20q6 -1 17.5 -4t43 -14.5t60.5 -26.5t64.5 -42t61 -59.5t43 -80t17.5 -101.5q0 -86 -38 -160.5t-112.5 -133.5 t-196.5 -92.5t-278 -33.5h-819q-31 0 -51 20.5t-20 51.5zM604 328h440q74 0 114 33.5t40 89.5t-39.5 89t-114.5 33h-440v-245zM604 901h359q67 0 100 27.5t33 75.5q0 102 -133 102h-359v-205z" />
<glyph unicode="&#x413;" horiz-adv-x="1464" d="M154 72v1290q0 31 20 51.5t51 20.5h1147q31 0 51.5 -20.5t20.5 -51.5v-205q0 -31 -20.5 -51.5t-51.5 -20.5h-768v-1013q0 -31 -20.5 -51.5t-51.5 -20.5h-307q-31 0 -51 20.5t-20 51.5z" />
<glyph unicode="&#x414;" horiz-adv-x="1914" d="M0 72v204q0 31 20.5 51.5t51.5 20.5h112l133 553q130 533 697 533h594q31 0 51 -20.5t20 -51.5v-1014h133q31 0 51.5 -20.5t20.5 -51.5v-204q0 -31 -20.5 -51.5t-51.5 -20.5h-1740q-31 0 -51.5 20.5t-20.5 51.5zM645 348h584v737h-215q-97 0 -156 -48t-80 -136z" />
<glyph unicode="&#x415;" horiz-adv-x="1617" d="M154 72v1290q0 31 20 51.5t51 20.5h1250q31 0 51 -20.5t20 -51.5v-205q0 -31 -20 -51.5t-51 -20.5h-871v-184h645q31 0 51.5 -20.5t20.5 -51.5v-204q0 -31 -20.5 -51.5t-51.5 -20.5h-645v-205h871q31 0 51 -20.5t20 -51.5v-204q0 -31 -20 -51.5t-51 -20.5h-1250 q-31 0 -51 20.5t-20 51.5z" />
<glyph unicode="&#x416;" horiz-adv-x="2510" d="M37 72l205 379q37 69 79 123.5t76 83.5t62 48.5t43 25.5l16 5v21l-15 6t-39.5 22t-57.5 42.5t-65.5 71.5t-68.5 104l-194 358q-13 25 1 48.5t50 23.5h317q56 0 85 -18t49 -54l194 -358q28 -52 67 -77.5t117 -25.5h72v461q0 31 20.5 51.5t51.5 20.5h307q31 0 51.5 -20.5 t20.5 -51.5v-461h71q78 0 117.5 25.5t67.5 77.5l194 358q20 36 48.5 54t84.5 18h318q36 0 50 -23.5t1 -48.5l-195 -358q-31 -57 -67.5 -103.5t-67 -72t-56 -42.5t-39.5 -22l-15 -6v-21q6 -2 16.5 -6t42 -24t63 -48.5t74.5 -83.5t80 -124l205 -379q13 -25 -1 -48.5t-50 -23.5 h-318q-56 0 -84.5 18t-48.5 54l-205 379q-28 52 -67 77t-117 25h-102v-481q0 -31 -20.5 -51.5t-51.5 -20.5h-307q-31 0 -51.5 20.5t-20.5 51.5v481h-102q-78 0 -117.5 -25t-67.5 -77l-204 -379q-20 -36 -48.5 -54t-84.5 -18h-318q-36 0 -50 23.5t-1 48.5z" />
<glyph unicode="&#x417;" horiz-adv-x="1648" d="M51 410q0 38 22 60t60 22h256q74 0 123 -82q69 -113 297 -113q141 0 208.5 40t67.5 93q0 56 -44.5 94.5t-118.5 38.5h-267q-31 0 -51 20.5t-20 51.5v205q0 31 20 51t51 20h246q66 0 104.5 32.5t38.5 80.5q0 45 -57.5 79t-177.5 34q-108 0 -166 -29t-80 -64 q-27 -42 -53.5 -61.5t-69.5 -19.5h-256q-38 0 -60 21.5t-22 59.5q0 63 27 123.5t84 116.5t138.5 98.5t199.5 67.5t258 25q146 0 265.5 -23t200.5 -62.5t136 -93.5t80 -114.5t25 -126.5q0 -63 -26.5 -115.5t-64 -83t-75 -52t-64.5 -28.5l-26 -8v-20q6 -1 16.5 -4t41.5 -15 t59 -28t62 -44.5t58.5 -62.5t41.5 -85t17 -110q0 -69 -26 -132t-84 -120t-143.5 -98t-212 -65.5t-281.5 -24.5t-282.5 25.5t-214.5 68.5t-147 101t-87 122.5t-27 133.5z" />
<glyph unicode="&#x418;" horiz-adv-x="1822" d="M154 72v1290q0 31 20 51.5t51 20.5h307q31 0 51.5 -20.5t20.5 -51.5v-748h21l512 748q18 28 47.5 50t64.5 22h348q31 0 51.5 -20.5t20.5 -51.5v-1290q0 -31 -20.5 -51.5t-51.5 -20.5h-307q-31 0 -51 20.5t-20 51.5v747h-21l-512 -747q-18 -28 -48 -50t-65 -22h-348 q-31 0 -51 20.5t-20 51.5z" />
<glyph unicode="&#x419;" horiz-adv-x="1822" d="M154 72v1290q0 31 20 51.5t51 20.5h307q31 0 51.5 -20.5t20.5 -51.5v-748h21l512 748q18 28 47.5 50t64.5 22h348q31 0 51.5 -20.5t20.5 -51.5v-1290q0 -31 -20.5 -51.5t-51.5 -20.5h-307q-31 0 -51 20.5t-20 51.5v747h-21l-512 -747q-18 -28 -48 -50t-65 -22h-348 q-31 0 -51 20.5t-20 51.5zM471 1925q0 15 13 28t28 13h195q22 0 35 -12t16 -29q8 -48 44.5 -80.5t88.5 -32.5t88.5 32.5t44.5 80.5q3 17 16 29t35 12h195q15 0 28 -13t13 -28q0 -165 -112 -267t-308 -102t-308 102t-112 267z" />
<glyph unicode="&#x41a;" horiz-adv-x="1716" d="M154 72v1290q0 31 20 51.5t51 20.5h307q31 0 51.5 -20.5t20.5 -51.5v-461h154q78 0 117 25.5t67 77.5l195 358q20 36 48.5 54t84.5 18h317q36 0 50 -23.5t1 -48.5l-194 -358q-31 -57 -68 -103.5t-67 -72t-56 -42.5t-41 -22l-14 -6v-21q6 -2 16.5 -6t42.5 -24t63.5 -48.5 t74.5 -83.5t80 -124l204 -379q13 -25 -1 -48.5t-50 -23.5h-317q-56 0 -84.5 18t-48.5 54l-205 379q-28 52 -67.5 77t-117.5 25h-184v-481q0 -31 -20.5 -51.5t-51.5 -20.5h-307q-31 0 -51 20.5t-20 51.5z" />
<glyph unicode="&#x41b;" horiz-adv-x="1794" d="M43 72l205 829q64 258 232 395.5t464 137.5h625q31 0 51 -20.5t20 -51.5v-1290q0 -31 -20 -51.5t-51 -20.5h-307q-31 0 -51.5 20.5t-20.5 51.5v1013h-246q-188 0 -235 -184l-205 -829q-8 -31 -29.5 -51.5t-50.5 -20.5h-309q-38 0 -59 21t-13 51z" />
<glyph unicode="&#x41c;" horiz-adv-x="2273" d="M154 72v1290q0 31 20 51.5t51 20.5h430q42 0 72 -22.5t41 -49.5l358 -870h21l358 870q11 27 41 49.5t72 22.5h430q31 0 51.5 -20.5t20.5 -51.5v-1290q0 -31 -20.5 -51.5t-51.5 -20.5h-307q-31 0 -51.5 20.5t-20.5 51.5v676h-20l-275 -676q-11 -27 -40.5 -49.5 t-71.5 -22.5h-248q-42 0 -72 22.5t-41 49.5l-276 676h-21v-676q0 -31 -20.5 -51.5t-51.5 -20.5h-307q-31 0 -51 20.5t-20 51.5z" />
<glyph unicode="&#x41d;" d="M154 72v1290q0 31 20 51.5t51 20.5h307q31 0 51.5 -20.5t20.5 -51.5v-481h594v481q0 31 20.5 51.5t51.5 20.5h307q31 0 51.5 -20.5t20.5 -51.5v-1290q0 -31 -20.5 -51.5t-51.5 -20.5h-307q-31 0 -51.5 20.5t-20.5 51.5v460h-594v-460q0 -31 -20.5 -51.5t-51.5 -20.5h-307 q-31 0 -51 20.5t-20 51.5z" />
<glyph unicode="&#x41e;" horiz-adv-x="1863" d="M92 717q0 351 219.5 554.5t620.5 203.5t620.5 -203.5t219.5 -554.5t-219.5 -554.5t-620.5 -203.5t-620.5 203.5t-219.5 554.5zM563 717q0 -203 98.5 -311.5t270.5 -108.5t270 108t98 312t-98 312t-270 108t-270.5 -108.5t-98.5 -311.5z" />
<glyph unicode="&#x41f;" d="M154 72v1290q0 31 20 51.5t51 20.5h1352q31 0 51.5 -20.5t20.5 -51.5v-1290q0 -31 -20.5 -51.5t-51.5 -20.5h-307q-31 0 -51.5 20.5t-20.5 51.5v1013h-594v-1013q0 -31 -20.5 -51.5t-51.5 -20.5h-307q-31 0 -51 20.5t-20 51.5z" />
<glyph unicode="&#x420;" horiz-adv-x="1699" d="M154 72v1290q0 31 20 51.5t51 20.5h717q176 0 312.5 -39.5t222 -110.5t129 -165.5t43.5 -207.5t-43.5 -207t-129 -165t-222 -110.5t-312.5 -39.5h-338v-317q0 -31 -20.5 -51.5t-51.5 -20.5h-307q-31 0 -51 20.5t-20 51.5zM604 717h338q113 0 174.5 53.5t61.5 140.5 t-62 141t-174 54h-338v-389z" />
<glyph unicode="&#x421;" horiz-adv-x="1761" d="M92 717q0 351 219.5 554.5t620.5 203.5q173 0 316.5 -43.5t233.5 -114.5t138.5 -157.5t48.5 -176.5q0 -38 -22 -60t-60 -22h-256q-43 0 -70 20t-53 62q-45 72 -107.5 113t-168.5 41q-172 0 -270.5 -108.5t-98.5 -311.5t98.5 -311.5t270.5 -108.5q201 0 297 174 q23 41 51.5 61.5t71.5 20.5h256q38 0 60 -22t22 -60q0 -75 -31 -148t-94.5 -138.5t-152.5 -116t-213 -80t-267 -29.5q-401 0 -620.5 203.5t-219.5 554.5z" />
<glyph unicode="&#x422;" horiz-adv-x="1515" d="M31 1157v205q0 31 20 51.5t51 20.5h1311q31 0 51.5 -20.5t20.5 -51.5v-205q0 -31 -20.5 -51.5t-51.5 -20.5h-430v-1013q0 -31 -20.5 -51.5t-51.5 -20.5h-307q-31 0 -51.5 20.5t-20.5 51.5v1013h-430q-31 0 -51 20.5t-20 51.5z" />
<glyph unicode="&#x423;" horiz-adv-x="1669" d="M6 1362q-12 31 6 51.5t56 20.5h307q74 0 102 -72l174 -420q53 -123 164 -123h164l205 543q11 32 38 52t64 20h297q38 0 55.5 -20.5t6.5 -51.5l-338 -911q-81 -220 -227 -335.5t-388 -115.5h-256q-31 0 -51 20.5t-20 51.5v225q0 31 20 51.5t51 20.5h92q20 0 72 -10.5 t72 -10.5h20q58 0 99.5 30.5t54.5 72.5l10 30h-51q-125 0 -222.5 29.5t-171.5 90.5t-128.5 143t-102.5 198z" />
<glyph unicode="&#x424;" horiz-adv-x="2150" d="M61 717q0 135 50.5 248.5t147.5 197.5t248.5 131t342.5 47v82q0 31 20.5 51.5t51.5 20.5h307q31 0 51 -20.5t20 -51.5v-82q191 0 342.5 -47t248.5 -131t147.5 -197.5t50.5 -248.5t-50.5 -248.5t-147.5 -198t-248.5 -131.5t-342.5 -47v-82q0 -31 -20 -51t-51 -20h-307 q-31 0 -51.5 20t-20.5 51v82q-191 0 -342.5 47t-248.5 131.5t-147.5 198t-50.5 248.5zM532 717q0 -132 86.5 -214.5t231.5 -82.5v594q-145 0 -231.5 -82.5t-86.5 -214.5zM1300 420q145 0 231.5 82.5t86.5 214.5t-86.5 214.5t-231.5 82.5v-594z" />
<glyph unicode="&#x425;" horiz-adv-x="1638" d="M18.5 24.5q-16.5 24.5 1.5 47.5l492 665l-451 625q-18 23 -1.5 47.5t53.5 24.5h348q41 0 72.5 -21.5t50.5 -50.5l225 -338h20l226 338q19 29 50.5 50.5t72.5 21.5h348q37 0 53 -24.5t-2 -47.5l-451 -625l492 -665q18 -23 2 -47.5t-53 -24.5h-359q-77 0 -123 72l-256 358 h-20l-256 -358q-46 -72 -123 -72h-358q-37 0 -53.5 24.5z" />
<glyph unicode="&#x426;" horiz-adv-x="1863" d="M154 72v1290q0 31 20 51.5t51 20.5h307q31 0 51.5 -20.5t20.5 -51.5v-1014h574v1014q0 31 20 51.5t51 20.5h307q31 0 51.5 -20.5t20.5 -51.5v-1014h133q31 0 51.5 -20.5t20.5 -51.5v-204q0 -31 -20.5 -51.5t-51.5 -20.5h-1536q-31 0 -51 20.5t-20 51.5z" />
<glyph unicode="&#x427;" horiz-adv-x="1720" d="M113 983v379q0 31 20 51.5t51 20.5h308q31 0 51 -20.5t20 -51.5v-379q0 -96 66 -150.5t200 -54.5q55 0 126.5 10t116.5 20l44 11v543q0 31 20.5 51.5t51.5 20.5h307q31 0 51.5 -20.5t20.5 -51.5v-1290q0 -31 -20.5 -51.5t-51.5 -20.5h-307q-31 0 -51.5 20.5t-20.5 51.5 v399q-184 -41 -348 -41q-315 0 -485 150t-170 403z" />
<glyph unicode="&#x428;" horiz-adv-x="2478" d="M154 72v1290q0 31 20 51.5t51 20.5h307q31 0 51.5 -20.5t20.5 -51.5v-1014h410v1014q0 31 20 51.5t51 20.5h308q31 0 51 -20.5t20 -51.5v-1014h410v1014q0 31 20.5 51.5t51.5 20.5h307q31 0 51 -20.5t20 -51.5v-1290q0 -31 -20 -51.5t-51 -20.5h-2028q-31 0 -51 20.5 t-20 51.5z" />
<glyph unicode="&#x429;" horiz-adv-x="2560" d="M154 72v1290q0 31 20 51.5t51 20.5h307q31 0 51.5 -20.5t20.5 -51.5v-1014h410v1014q0 31 20 51.5t51 20.5h308q31 0 51 -20.5t20 -51.5v-1014h410v1014q0 31 20.5 51.5t51.5 20.5h307q31 0 51 -20.5t20 -51.5v-1014h134q31 0 51 -20.5t20 -51.5v-204q0 -31 -20 -51.5 t-51 -20.5h-2233q-31 0 -51 20.5t-20 51.5z" />
<glyph unicode="&#x42a;" horiz-adv-x="1863" d="M0 1157v205q0 31 20.5 51.5t51.5 20.5h676q31 0 51 -20.5t20 -51.5v-358h318q339 0 512.5 -138t173.5 -364t-173.5 -364t-512.5 -138h-697q-31 0 -51 20.5t-20 51.5v1013h-297q-31 0 -51.5 20.5t-20.5 51.5zM819 328h318q104 0 159.5 47.5t55.5 126.5t-55.5 126.5 t-159.5 47.5h-318v-348z" />
<glyph unicode="&#x42b;" horiz-adv-x="2375" d="M154 72v1290q0 31 20 51.5t51 20.5h307q31 0 51.5 -20.5t20.5 -51.5v-358h297q339 0 512.5 -138t173.5 -364t-173.5 -364t-512.5 -138h-676q-31 0 -51 20.5t-20 51.5zM604 328h297q104 0 159.5 47.5t55.5 126.5t-55.5 126.5t-159.5 47.5h-297v-348zM1772 72v1290 q0 31 20 51.5t51 20.5h307q31 0 51.5 -20.5t20.5 -51.5v-1290q0 -31 -20.5 -51.5t-51.5 -20.5h-307q-31 0 -51 20.5t-20 51.5z" />
<glyph unicode="&#x42c;" horiz-adv-x="1669" d="M154 72v1290q0 31 20 51.5t51 20.5h307q31 0 51.5 -20.5t20.5 -51.5v-358h338q339 0 512.5 -138t173.5 -364t-173.5 -364t-512.5 -138h-717q-31 0 -51 20.5t-20 51.5zM604 328h338q104 0 159.5 47.5t55.5 126.5t-55.5 126.5t-159.5 47.5h-338v-348z" />
<glyph unicode="&#x42d;" horiz-adv-x="1761" d="M72 471q0 38 22 60t60 22h256q43 0 70.5 -20.5t51.5 -61.5q96 -174 297 -174q139 0 227.5 70.5t121.5 185.5h-492q-31 0 -51.5 20.5t-20.5 51.5v184q0 31 20.5 51.5t51.5 20.5h492q-85 256 -349 256q-106 0 -168.5 -41t-107.5 -113q-26 -42 -53 -62t-70 -20h-256 q-38 0 -60 22t-22 60q0 90 48.5 176.5t138.5 157.5t233.5 114.5t316.5 43.5q401 0 620.5 -203.5t219.5 -554.5t-219.5 -554.5t-620.5 -203.5q-143 0 -267 29.5t-212.5 80t-152 116t-94.5 138.5t-31 148z" />
<glyph unicode="&#x42e;" horiz-adv-x="2437" d="M154 72v1290q0 31 20 51.5t51 20.5h307q31 0 51.5 -20.5t20.5 -51.5v-481h205q48 280 236 437t522 157q367 0 572.5 -201.5t205.5 -556.5t-205.5 -556.5t-572.5 -201.5q-332 0 -521 153.5t-237 419.5h-205v-460q0 -31 -20.5 -51.5t-51.5 -20.5h-307q-31 0 -51 20.5 t-20 51.5zM1260 717q0 -207 85 -313.5t222 -106.5t222 106.5t85 313.5t-85 313.5t-222 106.5t-222 -106.5t-85 -313.5z" />
<glyph unicode="&#x42f;" horiz-adv-x="1751" d="M49 24.5q-16 24.5 2 47.5l369 481v20q-6 1 -17 4t-41.5 15.5t-58.5 29t-62.5 46.5t-59 66.5t-41.5 90.5t-17 117q0 105 41.5 193.5t123 155.5t212.5 105t299 38h727q31 0 51 -20.5t20 -51.5v-1290q0 -31 -20 -51.5t-51 -20.5h-307q-31 0 -51.5 20.5t-20.5 51.5v379h-277 l-286 -379q-53 -72 -133 -72h-349q-37 0 -53 24.5zM594 942q0 -72 54 -118t151 -46h348v328h-348q-97 0 -151 -46t-54 -118z" />
<glyph unicode="&#x430;" horiz-adv-x="1763" d="M6 72l574 1290q32 72 92 72h420q61 0 92 -70l573 -1292q13 -30 -3 -51t-48 -21h-348q-30 0 -55 20t-37 52l-72 184h-645l-72 -184q-12 -32 -37 -52t-55 -20h-328q-32 0 -48 21t-3 51zM692 594h359l-164 410h-21z" />
<glyph unicode="&#x431;" horiz-adv-x="1710" d="M154 72v1290q0 31 20 51.5t51 20.5h1229q31 0 51.5 -20.5t20.5 -51.5v-205q0 -31 -20.5 -51.5t-51.5 -20.5h-850v-163h410q157 0 280 -36t199.5 -99t116 -145.5t39.5 -180.5t-39.5 -180.5t-116 -145.5t-199.5 -99t-280 -36h-789q-31 0 -51 20.5t-20 51.5zM604 328h410 q74 0 119 38.5t45 94.5t-45 94.5t-119 38.5h-410v-266z" />
<glyph unicode="&#x432;" horiz-adv-x="1740" d="M154 72v1290q0 31 20 51.5t51 20.5h738q153 0 271 -32t189.5 -88t107.5 -126.5t36 -153.5q0 -57 -21 -105.5t-51.5 -77t-60.5 -48.5t-51 -27l-21 -8v-20q6 -1 17.5 -4t43 -14.5t60.5 -26.5t64.5 -42t61 -59.5t43 -80t17.5 -101.5q0 -86 -38 -160.5t-112.5 -133.5 t-196.5 -92.5t-278 -33.5h-819q-31 0 -51 20.5t-20 51.5zM604 328h440q74 0 114 33.5t40 89.5t-39.5 89t-114.5 33h-440v-245zM604 901h359q67 0 100 27.5t33 75.5q0 102 -133 102h-359v-205z" />
<glyph unicode="&#x433;" horiz-adv-x="1464" d="M154 72v1290q0 31 20 51.5t51 20.5h1147q31 0 51.5 -20.5t20.5 -51.5v-205q0 -31 -20.5 -51.5t-51.5 -20.5h-768v-1013q0 -31 -20.5 -51.5t-51.5 -20.5h-307q-31 0 -51 20.5t-20 51.5z" />
<glyph unicode="&#x434;" horiz-adv-x="1914" d="M0 72v204q0 31 20.5 51.5t51.5 20.5h112l133 553q130 533 697 533h594q31 0 51 -20.5t20 -51.5v-1014h133q31 0 51.5 -20.5t20.5 -51.5v-204q0 -31 -20.5 -51.5t-51.5 -20.5h-1740q-31 0 -51.5 20.5t-20.5 51.5zM645 348h584v737h-215q-97 0 -156 -48t-80 -136z" />
<glyph unicode="&#x435;" horiz-adv-x="1617" d="M154 72v1290q0 31 20 51.5t51 20.5h1250q31 0 51 -20.5t20 -51.5v-205q0 -31 -20 -51.5t-51 -20.5h-871v-184h645q31 0 51.5 -20.5t20.5 -51.5v-204q0 -31 -20.5 -51.5t-51.5 -20.5h-645v-205h871q31 0 51 -20.5t20 -51.5v-204q0 -31 -20 -51.5t-51 -20.5h-1250 q-31 0 -51 20.5t-20 51.5z" />
<glyph unicode="&#x436;" horiz-adv-x="2510" d="M37 72l205 379q37 69 79 123.5t76 83.5t62 48.5t43 25.5l16 5v21l-15 6t-39.5 22t-57.5 42.5t-65.5 71.5t-68.5 104l-194 358q-13 25 1 48.5t50 23.5h317q56 0 85 -18t49 -54l194 -358q28 -52 67 -77.5t117 -25.5h72v461q0 31 20.5 51.5t51.5 20.5h307q31 0 51.5 -20.5 t20.5 -51.5v-461h71q78 0 117.5 25.5t67.5 77.5l194 358q20 36 48.5 54t84.5 18h318q36 0 50 -23.5t1 -48.5l-195 -358q-31 -57 -67.5 -103.5t-67 -72t-56 -42.5t-39.5 -22l-15 -6v-21q6 -2 16.5 -6t42 -24t63 -48.5t74.5 -83.5t80 -124l205 -379q13 -25 -1 -48.5t-50 -23.5 h-318q-56 0 -84.5 18t-48.5 54l-205 379q-28 52 -67 77t-117 25h-102v-481q0 -31 -20.5 -51.5t-51.5 -20.5h-307q-31 0 -51.5 20.5t-20.5 51.5v481h-102q-78 0 -117.5 -25t-67.5 -77l-204 -379q-20 -36 -48.5 -54t-84.5 -18h-318q-36 0 -50 23.5t-1 48.5z" />
<glyph unicode="&#x437;" horiz-adv-x="1648" d="M51 410q0 38 22 60t60 22h256q74 0 123 -82q69 -113 297 -113q141 0 208.5 40t67.5 93q0 56 -44.5 94.5t-118.5 38.5h-267q-31 0 -51 20.5t-20 51.5v205q0 31 20 51t51 20h246q66 0 104.5 32.5t38.5 80.5q0 45 -57.5 79t-177.5 34q-108 0 -166 -29t-80 -64 q-27 -42 -53.5 -61.5t-69.5 -19.5h-256q-38 0 -60 21.5t-22 59.5q0 63 27 123.5t84 116.5t138.5 98.5t199.5 67.5t258 25q146 0 265.5 -23t200.5 -62.5t136 -93.5t80 -114.5t25 -126.5q0 -63 -26.5 -115.5t-64 -83t-75 -52t-64.5 -28.5l-26 -8v-20q6 -1 16.5 -4t41.5 -15 t59 -28t62 -44.5t58.5 -62.5t41.5 -85t17 -110q0 -69 -26 -132t-84 -120t-143.5 -98t-212 -65.5t-281.5 -24.5t-282.5 25.5t-214.5 68.5t-147 101t-87 122.5t-27 133.5z" />
<glyph unicode="&#x438;" horiz-adv-x="1822" d="M154 72v1290q0 31 20 51.5t51 20.5h307q31 0 51.5 -20.5t20.5 -51.5v-748h21l512 748q18 28 47.5 50t64.5 22h348q31 0 51.5 -20.5t20.5 -51.5v-1290q0 -31 -20.5 -51.5t-51.5 -20.5h-307q-31 0 -51 20.5t-20 51.5v747h-21l-512 -747q-18 -28 -48 -50t-65 -22h-348 q-31 0 -51 20.5t-20 51.5z" />
<glyph unicode="&#x439;" horiz-adv-x="1822" d="M154 72v1290q0 31 20 51.5t51 20.5h307q31 0 51.5 -20.5t20.5 -51.5v-748h21l512 748q18 28 47.5 50t64.5 22h348q31 0 51.5 -20.5t20.5 -51.5v-1290q0 -31 -20.5 -51.5t-51.5 -20.5h-307q-31 0 -51 20.5t-20 51.5v747h-21l-512 -747q-18 -28 -48 -50t-65 -22h-348 q-31 0 -51 20.5t-20 51.5zM471 1925q0 15 13 28t28 13h195q22 0 35 -12t16 -29q8 -48 44.5 -80.5t88.5 -32.5t88.5 32.5t44.5 80.5q3 17 16 29t35 12h195q15 0 28 -13t13 -28q0 -165 -112 -267t-308 -102t-308 102t-112 267z" />
<glyph unicode="&#x43a;" horiz-adv-x="1716" d="M154 72v1290q0 31 20 51.5t51 20.5h307q31 0 51.5 -20.5t20.5 -51.5v-461h154q78 0 117 25.5t67 77.5l195 358q20 36 48.5 54t84.5 18h317q36 0 50 -23.5t1 -48.5l-194 -358q-31 -57 -68 -103.5t-67 -72t-56 -42.5t-41 -22l-14 -6v-21q6 -2 16.5 -6t42.5 -24t63.5 -48.5 t74.5 -83.5t80 -124l204 -379q13 -25 -1 -48.5t-50 -23.5h-317q-56 0 -84.5 18t-48.5 54l-205 379q-28 52 -67.5 77t-117.5 25h-184v-481q0 -31 -20.5 -51.5t-51.5 -20.5h-307q-31 0 -51 20.5t-20 51.5z" />
<glyph unicode="&#x43b;" horiz-adv-x="1794" d="M43 72l205 829q64 258 232 395.5t464 137.5h625q31 0 51 -20.5t20 -51.5v-1290q0 -31 -20 -51.5t-51 -20.5h-307q-31 0 -51.5 20.5t-20.5 51.5v1013h-246q-188 0 -235 -184l-205 -829q-8 -31 -29.5 -51.5t-50.5 -20.5h-309q-38 0 -59 21t-13 51z" />
<glyph unicode="&#x43c;" horiz-adv-x="2273" d="M154 72v1290q0 31 20 51.5t51 20.5h430q42 0 72 -22.5t41 -49.5l358 -870h21l358 870q11 27 41 49.5t72 22.5h430q31 0 51.5 -20.5t20.5 -51.5v-1290q0 -31 -20.5 -51.5t-51.5 -20.5h-307q-31 0 -51.5 20.5t-20.5 51.5v676h-20l-275 -676q-11 -27 -40.5 -49.5 t-71.5 -22.5h-248q-42 0 -72 22.5t-41 49.5l-276 676h-21v-676q0 -31 -20.5 -51.5t-51.5 -20.5h-307q-31 0 -51 20.5t-20 51.5z" />
<glyph unicode="&#x43d;" d="M154 72v1290q0 31 20 51.5t51 20.5h307q31 0 51.5 -20.5t20.5 -51.5v-481h594v481q0 31 20.5 51.5t51.5 20.5h307q31 0 51.5 -20.5t20.5 -51.5v-1290q0 -31 -20.5 -51.5t-51.5 -20.5h-307q-31 0 -51.5 20.5t-20.5 51.5v460h-594v-460q0 -31 -20.5 -51.5t-51.5 -20.5h-307 q-31 0 -51 20.5t-20 51.5z" />
<glyph unicode="&#x43e;" horiz-adv-x="1863" d="M92 717q0 351 219.5 554.5t620.5 203.5t620.5 -203.5t219.5 -554.5t-219.5 -554.5t-620.5 -203.5t-620.5 203.5t-219.5 554.5zM563 717q0 -203 98.5 -311.5t270.5 -108.5t270 108t98 312t-98 312t-270 108t-270.5 -108.5t-98.5 -311.5z" />
<glyph unicode="&#x43f;" d="M154 72v1290q0 31 20 51.5t51 20.5h1352q31 0 51.5 -20.5t20.5 -51.5v-1290q0 -31 -20.5 -51.5t-51.5 -20.5h-307q-31 0 -51.5 20.5t-20.5 51.5v1013h-594v-1013q0 -31 -20.5 -51.5t-51.5 -20.5h-307q-31 0 -51 20.5t-20 51.5z" />
<glyph unicode="&#x440;" horiz-adv-x="1699" d="M154 72v1290q0 31 20 51.5t51 20.5h717q176 0 312.5 -39.5t222 -110.5t129 -165.5t43.5 -207.5t-43.5 -207t-129 -165t-222 -110.5t-312.5 -39.5h-338v-317q0 -31 -20.5 -51.5t-51.5 -20.5h-307q-31 0 -51 20.5t-20 51.5zM604 717h338q113 0 174.5 53.5t61.5 140.5 t-62 141t-174 54h-338v-389z" />
<glyph unicode="&#x441;" horiz-adv-x="1761" d="M92 717q0 351 219.5 554.5t620.5 203.5q173 0 316.5 -43.5t233.5 -114.5t138.5 -157.5t48.5 -176.5q0 -38 -22 -60t-60 -22h-256q-43 0 -70 20t-53 62q-45 72 -107.5 113t-168.5 41q-172 0 -270.5 -108.5t-98.5 -311.5t98.5 -311.5t270.5 -108.5q201 0 297 174 q23 41 51.5 61.5t71.5 20.5h256q38 0 60 -22t22 -60q0 -75 -31 -148t-94.5 -138.5t-152.5 -116t-213 -80t-267 -29.5q-401 0 -620.5 203.5t-219.5 554.5z" />
<glyph unicode="&#x442;" horiz-adv-x="1515" d="M31 1157v205q0 31 20 51.5t51 20.5h1311q31 0 51.5 -20.5t20.5 -51.5v-205q0 -31 -20.5 -51.5t-51.5 -20.5h-430v-1013q0 -31 -20.5 -51.5t-51.5 -20.5h-307q-31 0 -51.5 20.5t-20.5 51.5v1013h-430q-31 0 -51 20.5t-20 51.5z" />
<glyph unicode="&#x443;" horiz-adv-x="1669" d="M6 1362q-12 31 6 51.5t56 20.5h307q74 0 102 -72l174 -420q53 -123 164 -123h164l205 543q11 32 38 52t64 20h297q38 0 55.5 -20.5t6.5 -51.5l-338 -911q-81 -220 -227 -335.5t-388 -115.5h-256q-31 0 -51 20.5t-20 51.5v225q0 31 20 51.5t51 20.5h92q20 0 72 -10.5 t72 -10.5h20q58 0 99.5 30.5t54.5 72.5l10 30h-51q-125 0 -222.5 29.5t-171.5 90.5t-128.5 143t-102.5 198z" />
<glyph unicode="&#x444;" horiz-adv-x="2150" d="M61 717q0 135 50.5 248.5t147.5 197.5t248.5 131t342.5 47v82q0 31 20.5 51.5t51.5 20.5h307q31 0 51 -20.5t20 -51.5v-82q191 0 342.5 -47t248.5 -131t147.5 -197.5t50.5 -248.5t-50.5 -248.5t-147.5 -198t-248.5 -131.5t-342.5 -47v-82q0 -31 -20 -51t-51 -20h-307 q-31 0 -51.5 20t-20.5 51v82q-191 0 -342.5 47t-248.5 131.5t-147.5 198t-50.5 248.5zM532 717q0 -132 86.5 -214.5t231.5 -82.5v594q-145 0 -231.5 -82.5t-86.5 -214.5zM1300 420q145 0 231.5 82.5t86.5 214.5t-86.5 214.5t-231.5 82.5v-594z" />
<glyph unicode="&#x445;" horiz-adv-x="1638" d="M18.5 24.5q-16.5 24.5 1.5 47.5l492 665l-451 625q-18 23 -1.5 47.5t53.5 24.5h348q41 0 72.5 -21.5t50.5 -50.5l225 -338h20l226 338q19 29 50.5 50.5t72.5 21.5h348q37 0 53 -24.5t-2 -47.5l-451 -625l492 -665q18 -23 2 -47.5t-53 -24.5h-359q-77 0 -123 72l-256 358 h-20l-256 -358q-46 -72 -123 -72h-358q-37 0 -53.5 24.5z" />
<glyph unicode="&#x446;" horiz-adv-x="1863" d="M154 72v1290q0 31 20 51.5t51 20.5h307q31 0 51.5 -20.5t20.5 -51.5v-1014h574v1014q0 31 20 51.5t51 20.5h307q31 0 51.5 -20.5t20.5 -51.5v-1014h133q31 0 51.5 -20.5t20.5 -51.5v-204q0 -31 -20.5 -51.5t-51.5 -20.5h-1536q-31 0 -51 20.5t-20 51.5z" />
<glyph unicode="&#x447;" horiz-adv-x="1720" d="M113 983v379q0 31 20 51.5t51 20.5h308q31 0 51 -20.5t20 -51.5v-379q0 -96 66 -150.5t200 -54.5q55 0 126.5 10t116.5 20l44 11v543q0 31 20.5 51.5t51.5 20.5h307q31 0 51.5 -20.5t20.5 -51.5v-1290q0 -31 -20.5 -51.5t-51.5 -20.5h-307q-31 0 -51.5 20.5t-20.5 51.5 v399q-184 -41 -348 -41q-315 0 -485 150t-170 403z" />
<glyph unicode="&#x448;" horiz-adv-x="2478" d="M154 72v1290q0 31 20 51.5t51 20.5h307q31 0 51.5 -20.5t20.5 -51.5v-1014h410v1014q0 31 20 51.5t51 20.5h308q31 0 51 -20.5t20 -51.5v-1014h410v1014q0 31 20.5 51.5t51.5 20.5h307q31 0 51 -20.5t20 -51.5v-1290q0 -31 -20 -51.5t-51 -20.5h-2028q-31 0 -51 20.5 t-20 51.5z" />
<glyph unicode="&#x449;" horiz-adv-x="2560" d="M154 72v1290q0 31 20 51.5t51 20.5h307q31 0 51.5 -20.5t20.5 -51.5v-1014h410v1014q0 31 20 51.5t51 20.5h308q31 0 51 -20.5t20 -51.5v-1014h410v1014q0 31 20.5 51.5t51.5 20.5h307q31 0 51 -20.5t20 -51.5v-1014h134q31 0 51 -20.5t20 -51.5v-204q0 -31 -20 -51.5 t-51 -20.5h-2233q-31 0 -51 20.5t-20 51.5z" />
<glyph unicode="&#x44a;" horiz-adv-x="1863" d="M0 1157v205q0 31 20.5 51.5t51.5 20.5h676q31 0 51 -20.5t20 -51.5v-358h318q339 0 512.5 -138t173.5 -364t-173.5 -364t-512.5 -138h-697q-31 0 -51 20.5t-20 51.5v1013h-297q-31 0 -51.5 20.5t-20.5 51.5zM819 328h318q104 0 159.5 47.5t55.5 126.5t-55.5 126.5 t-159.5 47.5h-318v-348z" />
<glyph unicode="&#x44b;" horiz-adv-x="2375" d="M154 72v1290q0 31 20 51.5t51 20.5h307q31 0 51.5 -20.5t20.5 -51.5v-358h297q339 0 512.5 -138t173.5 -364t-173.5 -364t-512.5 -138h-676q-31 0 -51 20.5t-20 51.5zM604 328h297q104 0 159.5 47.5t55.5 126.5t-55.5 126.5t-159.5 47.5h-297v-348zM1772 72v1290 q0 31 20 51.5t51 20.5h307q31 0 51.5 -20.5t20.5 -51.5v-1290q0 -31 -20.5 -51.5t-51.5 -20.5h-307q-31 0 -51 20.5t-20 51.5z" />
<glyph unicode="&#x44c;" horiz-adv-x="1669" d="M154 72v1290q0 31 20 51.5t51 20.5h307q31 0 51.5 -20.5t20.5 -51.5v-358h338q339 0 512.5 -138t173.5 -364t-173.5 -364t-512.5 -138h-717q-31 0 -51 20.5t-20 51.5zM604 328h338q104 0 159.5 47.5t55.5 126.5t-55.5 126.5t-159.5 47.5h-338v-348z" />
<glyph unicode="&#x44d;" horiz-adv-x="1761" d="M72 471q0 38 22 60t60 22h256q43 0 70.5 -20.5t51.5 -61.5q96 -174 297 -174q139 0 227.5 70.5t121.5 185.5h-492q-31 0 -51.5 20.5t-20.5 51.5v184q0 31 20.5 51.5t51.5 20.5h492q-85 256 -349 256q-106 0 -168.5 -41t-107.5 -113q-26 -42 -53 -62t-70 -20h-256 q-38 0 -60 22t-22 60q0 90 48.5 176.5t138.5 157.5t233.5 114.5t316.5 43.5q401 0 620.5 -203.5t219.5 -554.5t-219.5 -554.5t-620.5 -203.5q-143 0 -267 29.5t-212.5 80t-152 116t-94.5 138.5t-31 148z" />
<glyph unicode="&#x44e;" horiz-adv-x="2437" d="M154 72v1290q0 31 20 51.5t51 20.5h307q31 0 51.5 -20.5t20.5 -51.5v-481h205q48 280 236 437t522 157q367 0 572.5 -201.5t205.5 -556.5t-205.5 -556.5t-572.5 -201.5q-332 0 -521 153.5t-237 419.5h-205v-460q0 -31 -20.5 -51.5t-51.5 -20.5h-307q-31 0 -51 20.5 t-20 51.5zM1260 717q0 -207 85 -313.5t222 -106.5t222 106.5t85 313.5t-85 313.5t-222 106.5t-222 -106.5t-85 -313.5z" />
<glyph unicode="&#x44f;" horiz-adv-x="1751" d="M49 24.5q-16 24.5 2 47.5l369 481v20q-6 1 -17 4t-41.5 15.5t-58.5 29t-62.5 46.5t-59 66.5t-41.5 90.5t-17 117q0 105 41.5 193.5t123 155.5t212.5 105t299 38h727q31 0 51 -20.5t20 -51.5v-1290q0 -31 -20 -51.5t-51 -20.5h-307q-31 0 -51.5 20.5t-20.5 51.5v379h-277 l-286 -379q-53 -72 -133 -72h-349q-37 0 -53 24.5zM594 942q0 -72 54 -118t151 -46h348v328h-348q-97 0 -151 -46t-54 -118z" />
<glyph unicode="&#x451;" horiz-adv-x="1617" d="M154 72q0 -31 20 -51.5t51 -20.5h1250q31 0 51 20.5t20 51.5v204q0 31 -20 51.5t-51 20.5h-871v205h645q31 0 51.5 20.5t20.5 51.5v204q0 31 -20.5 51.5t-51.5 20.5h-645v184h871q31 0 51 20.5t20 51.5v205q0 31 -20 51.5t-51 20.5h-1250q-31 0 -51 -20.5t-20 -51.5 v-1290zM389 1690v143q0 38 32.5 70t70.5 32h184q38 0 70 -32t32 -70v-143q0 -38 -32 -70.5t-70 -32.5h-184q-38 0 -70.5 32.5t-32.5 70.5zM922 1690v143q0 38 32 70t70 32h184q38 0 70.5 -32t32.5 -70v-143q0 -38 -32.5 -70.5t-70.5 -32.5h-184q-38 0 -70 32.5t-32 70.5z " />
<glyph unicode="&#x452;" horiz-adv-x="1812" d="M0 1157v205q0 31 20.5 51.5t51.5 20.5h1024q31 0 51 -20.5t20 -51.5v-205q0 -31 -20 -51.5t-51 -20.5h-287v-184q153 41 317 41q150 0 271.5 -39.5t200.5 -108t121 -159.5t42 -195q0 -226 -137.5 -353.5t-394.5 -127.5q-76 0 -162 21q-33 8 -48 24.5t-15 46.5v215 q0 23 19 42.5t42 19.5h20q15 0 41 -5.5t41 -5.5q68 0 106 34t38 89q0 67 -61.5 110.5t-184.5 43.5q-55 0 -119 -10t-100 -20l-37 -11v-481q0 -31 -20.5 -51.5t-51.5 -20.5h-307q-31 0 -51.5 20.5t-20.5 51.5v1013h-286q-31 0 -51.5 20.5t-20.5 51.5z" />
<glyph unicode="&#x453;" horiz-adv-x="1464" d="M154 72q0 -31 20 -51.5t51 -20.5h307q31 0 51.5 20.5t20.5 51.5v1013h768q31 0 51.5 20.5t20.5 51.5v205q0 31 -20.5 51.5t-51.5 20.5h-1147q-31 0 -51 -20.5t-20 -51.5v-1290zM666 1659l122 307q24 62 82 62h256q31 0 43.5 -19.5t-2.5 -42.5l-204 -307 q-23 -33 -43.5 -47.5t-49.5 -14.5h-163q-65 0 -41 62z" />
<glyph unicode="&#x454;" horiz-adv-x="1761" d="M92 717q0 351 219.5 554.5t620.5 203.5q173 0 316.5 -43.5t233.5 -114.5t138.5 -157.5t48.5 -176.5q0 -38 -22 -60t-60 -22h-256q-43 0 -70 20t-53 62q-45 72 -107.5 113t-168.5 41q-263 0 -348 -256h491q31 0 51.5 -20.5t20.5 -51.5v-184q0 -31 -20.5 -51.5t-51.5 -20.5 h-491q33 -115 121 -185.5t227 -70.5q201 0 297 174q23 41 51.5 61.5t71.5 20.5h256q38 0 60 -22t22 -60q0 -75 -31 -148t-94.5 -138.5t-152.5 -116t-213 -80t-267 -29.5q-401 0 -620.5 203.5t-219.5 554.5z" />
<glyph unicode="&#x455;" horiz-adv-x="1628" d="M61 410q0 38 22 60t60 22h256q43 0 71 -20.5t52 -61.5q30 -50 95 -81.5t202 -31.5q141 0 209 40t68 93q0 32 -34 54.5t-91.5 36t-132 24.5t-157 24.5t-165 32t-157 52t-132 79t-91.5 117.5t-34 164q0 95 42.5 176.5t127 146t225 101.5t322.5 37q137 0 253 -25 t196.5 -67.5t137.5 -98.5t83.5 -116.5t26.5 -123.5q0 -38 -22 -59.5t-60 -21.5h-256q-43 0 -71.5 20t-51.5 61q-20 34 -77.5 63.5t-158.5 29.5q-128 0 -187 -35.5t-59 -87.5q0 -32 34 -54.5t91.5 -36t132 -24.5t157 -24.5t165 -32t157 -52t132 -79t91.5 -117.5t34 -164 q0 -95 -44.5 -178t-132.5 -149.5t-235 -105t-336 -38.5q-155 0 -282.5 25.5t-214.5 68.5t-147 101t-87 122.5t-27 133.5z" />
<glyph unicode="&#x456;" horiz-adv-x="1126" d="M72 72v204q0 31 20 51.5t51 20.5h195v737h-195q-31 0 -51 20.5t-20 51.5v205q0 31 20 51.5t51 20.5h840q31 0 51.5 -20.5t20.5 -51.5v-205q0 -31 -20.5 -51.5t-51.5 -20.5h-195v-737h195q31 0 51.5 -20.5t20.5 -51.5v-204q0 -31 -20.5 -51.5t-51.5 -20.5h-840 q-31 0 -51 20.5t-20 51.5z" />
<glyph unicode="&#x457;" horiz-adv-x="1126" d="M72 72q0 -31 20 -51.5t51 -20.5h840q31 0 51.5 20.5t20.5 51.5v204q0 31 -20.5 51.5t-51.5 20.5h-195v737h195q31 0 51.5 20.5t20.5 51.5v205q0 31 -20.5 51.5t-51.5 20.5h-840q-31 0 -51 -20.5t-20 -51.5v-205q0 -31 20 -51.5t51 -20.5h195v-737h-195q-31 0 -51 -20.5 t-20 -51.5v-204zM102 1700v143q0 38 32.5 70.5t70.5 32.5h184q38 0 70.5 -32.5t32.5 -70.5v-143q0 -38 -32.5 -70.5t-70.5 -32.5h-184q-38 0 -70.5 32.5t-32.5 70.5zM635 1700v143q0 38 32 70.5t70 32.5h185q38 0 70 -32.5t32 -70.5v-143q0 -38 -32 -70.5t-70 -32.5h-185 q-38 0 -70 32.5t-32 70.5z" />
<glyph unicode="&#x458;" horiz-adv-x="1208" d="M41 51v225q0 31 20.5 51.5t51.5 20.5h112q21 0 72 -10t72 -10h20q107 0 166 59t59 166v809q0 31 20.5 51.5t51.5 20.5h307q31 0 51.5 -20.5t20.5 -51.5v-817q0 -565 -676 -565h-276q-31 0 -51.5 20t-20.5 51z" />
<glyph unicode="&#x459;" horiz-adv-x="2664" d="M43 72l205 829q64 258 232 395.5t464 137.5h604q31 0 51.5 -20.5t20.5 -51.5v-358h317q339 0 512.5 -138t173.5 -364t-173.5 -364t-512.5 -138h-696q-31 0 -51.5 20.5t-20.5 51.5v1013h-225q-188 0 -235 -184l-205 -829q-8 -31 -29.5 -51.5t-50.5 -20.5h-309 q-38 0 -59 21t-13 51zM1620 328h317q104 0 159.5 47.5t55.5 126.5t-55.5 126.5t-159.5 47.5h-317v-348z" />
<glyph unicode="&#x45a;" horiz-adv-x="2672" d="M154 72v1290q0 31 20 51.5t51 20.5h307q31 0 51.5 -20.5t20.5 -51.5v-420h574v420q0 31 20 51.5t51 20.5h307q31 0 51.5 -20.5t20.5 -51.5v-420h348q165 0 292 -36t205.5 -100t118.5 -148.5t40 -186.5t-40 -186.5t-118.5 -148.5t-205.5 -100t-292 -36h-727 q-31 0 -51 20.5t-20 51.5v522h-574v-522q0 -31 -20.5 -51.5t-51.5 -20.5h-307q-31 0 -51 20.5t-20 51.5zM1628 328h348q89 0 137 39.5t48 103.5t-48 103.5t-137 39.5h-348v-286z" />
<glyph unicode="&#x45b;" horiz-adv-x="1843" d="M0 1157v205q0 31 20.5 51.5t51.5 20.5h1024q31 0 51 -20.5t20 -51.5v-205q0 -31 -20 -51.5t-51 -20.5h-287v-184q133 41 297 41q302 0 468.5 -151t166.5 -402v-317q0 -31 -20.5 -51.5t-51.5 -20.5h-307q-31 0 -51.5 20.5t-20.5 51.5v317q0 95 -63 150t-183 55 q-55 0 -113.5 -10t-90.5 -20l-31 -11v-481q0 -31 -20.5 -51.5t-51.5 -20.5h-307q-31 0 -51.5 20.5t-20.5 51.5v1013h-286q-31 0 -51.5 20.5t-20.5 51.5z" />
<glyph unicode="&#x45c;" horiz-adv-x="1716" d="M154 72v1290q0 31 20 51.5t51 20.5h307q31 0 51.5 -20.5t20.5 -51.5v-461h154q78 0 117 25.5t67 77.5l195 358q20 36 48.5 54t84.5 18h317q36 0 50 -23.5t1 -48.5l-194 -358q-31 -57 -68 -103.5t-67 -72t-56 -42.5t-41 -22l-14 -6v-21q6 -2 16.5 -6t42.5 -24t63.5 -48.5 t74.5 -83.5t80 -124l204 -379q13 -25 -1 -48.5t-50 -23.5h-317q-56 0 -84.5 18t-48.5 54l-205 379q-28 52 -67.5 77t-117.5 25h-184v-481q0 -31 -20.5 -51.5t-51.5 -20.5h-307q-31 0 -51 20.5t-20 51.5zM727 1618l123 307q24 62 82 62h256q31 0 43.5 -19.5t-2.5 -42.5 l-205 -307q-24 -33 -43.5 -47.5t-48.5 -14.5h-164q-65 0 -41 62z" />
<glyph unicode="&#x45e;" horiz-adv-x="1669" d="M6 1362l174 -420q48 -116 102.5 -198t128.5 -143t171.5 -90.5t222.5 -29.5h51l-10 -30q-13 -42 -54.5 -72.5t-99.5 -30.5h-20q-20 0 -72 10.5t-72 10.5h-92q-31 0 -51 -20.5t-20 -51.5v-225q0 -31 20 -51.5t51 -20.5h256q242 0 388 115.5t227 335.5l338 911 q11 31 -6.5 51.5t-55.5 20.5h-297q-37 0 -64 -20t-38 -52l-205 -543h-164q-111 0 -164 123l-174 420q-28 72 -102 72h-307q-38 0 -56 -20.5t-6 -51.5zM420 1905q0 15 13 28t28 13h194q22 0 35.5 -12t16.5 -29q8 -48 44.5 -80.5t88.5 -32.5t88.5 32.5t44.5 80.5q3 17 16 29 t35 12h195q15 0 28 -13t13 -28q0 -165 -112 -267t-308 -102t-308 102t-112 267z" />
<glyph unicode="&#x45f;" d="M154 72v1290q0 31 20 51.5t51 20.5h307q31 0 51.5 -20.5t20.5 -51.5v-1014h594v1014q0 31 20.5 51.5t51.5 20.5h307q31 0 51.5 -20.5t20.5 -51.5v-1290q0 -31 -20.5 -51.5t-51.5 -20.5h-451v-195q0 -31 -20 -51t-51 -20h-307q-31 0 -51.5 20t-20.5 51v195h-451 q-31 0 -51 20.5t-20 51.5z" />
<glyph unicode="&#x490;" horiz-adv-x="1443" d="M154 72v1290q0 31 20 51.5t51 20.5h768v153q0 31 20.5 51.5t51.5 20.5h287q31 0 51 -20.5t20 -51.5v-430q0 -31 -20 -51.5t-51 -20.5h-748v-1013q0 -31 -20.5 -51.5t-51.5 -20.5h-307q-31 0 -51 20.5t-20 51.5z" />
<glyph unicode="&#x491;" horiz-adv-x="1443" d="M154 72v1290q0 31 20 51.5t51 20.5h768v153q0 31 20.5 51.5t51.5 20.5h287q31 0 51 -20.5t20 -51.5v-430q0 -31 -20 -51.5t-51 -20.5h-748v-1013q0 -31 -20.5 -51.5t-51.5 -20.5h-307q-31 0 -51 20.5t-20 51.5z" />
<glyph unicode="&#x2000;" horiz-adv-x="1014" />
<glyph unicode="&#x2001;" horiz-adv-x="2028" />
<glyph unicode="&#x2002;" horiz-adv-x="1014" />
<glyph unicode="&#x2003;" horiz-adv-x="2028" />
<glyph unicode="&#x2004;" horiz-adv-x="676" />
<glyph unicode="&#x2005;" horiz-adv-x="507" />
<glyph unicode="&#x2006;" horiz-adv-x="338" />
<glyph unicode="&#x2007;" horiz-adv-x="338" />
<glyph unicode="&#x2008;" horiz-adv-x="253" />
<glyph unicode="&#x2009;" horiz-adv-x="405" />
<glyph unicode="&#x200a;" horiz-adv-x="112" />
<glyph unicode="&#x2010;" horiz-adv-x="1187" d="M82 584v184q0 31 20.5 51.5t51.5 20.5h880q31 0 51.5 -20.5t20.5 -51.5v-184q0 -31 -20.5 -51.5t-51.5 -20.5h-880q-31 0 -51.5 20.5t-20.5 51.5z" />
<glyph unicode="&#x2011;" horiz-adv-x="1187" d="M82 584v184q0 31 20.5 51.5t51.5 20.5h880q31 0 51.5 -20.5t20.5 -51.5v-184q0 -31 -20.5 -51.5t-51.5 -20.5h-880q-31 0 -51.5 20.5t-20.5 51.5z" />
<glyph unicode="&#x2012;" horiz-adv-x="1187" d="M82 584v184q0 31 20.5 51.5t51.5 20.5h880q31 0 51.5 -20.5t20.5 -51.5v-184q0 -31 -20.5 -51.5t-51.5 -20.5h-880q-31 0 -51.5 20.5t-20.5 51.5z" />
<glyph unicode="&#x2013;" horiz-adv-x="1413" d="M82 563v164q0 31 20.5 51.5t51.5 20.5h1106q31 0 51 -20.5t20 -51.5v-164q0 -31 -20 -51t-51 -20h-1106q-31 0 -51.5 20t-20.5 51z" />
<glyph unicode="&#x2014;" horiz-adv-x="1832" d="M82 563v164q0 31 20.5 51.5t51.5 20.5h1525q31 0 51.5 -20.5t20.5 -51.5v-164q0 -31 -20.5 -51t-51.5 -20h-1525q-31 0 -51.5 20t-20.5 51z" />
<glyph unicode="&#x2018;" horiz-adv-x="573" d="M82 983v123q0 17 1 31.5t3.5 26t4 19t5.5 16t5.5 11.5t6.5 10.5t5 8.5l92 143q21 33 42 47.5t50 14.5h82q36 0 49.5 -20t-0.5 -42l-90 -164h51q38 0 70.5 -32t32.5 -70v-123q0 -38 -32.5 -70t-70.5 -32h-205q-38 0 -70 32t-32 70z" />
<glyph unicode="&#x2019;" horiz-adv-x="573" d="M82 1208v123q0 38 32 70.5t70 32.5h205q38 0 70.5 -32.5t32.5 -70.5v-123q0 -17 -1 -31.5t-3.5 -26t-4 -19t-5.5 -16t-5.5 -11.5t-6.5 -10.5t-5 -8.5l-92 -143q-40 -61 -93 -61h-81q-36 0 -50 19.5t0 41.5l91 164h-52q-38 0 -70 32t-32 70z" />
<glyph unicode="&#x201a;" horiz-adv-x="573" d="M82 102v123q0 38 32 70.5t70 32.5h205q38 0 70.5 -32.5t32.5 -70.5v-123q0 -17 -1 -31.5t-3.5 -25.5t-4 -19t-5.5 -16l-5.5 -11t-6 -10.5t-5.5 -8.5l-92 -144q-40 -61 -93 -61h-81q-36 0 -50 19.5t0 41.5l91 164h-52q-38 0 -70 32t-32 70z" />
<glyph unicode="&#x201c;" horiz-adv-x="1064" d="M82 983v123q0 17 1 31.5t3.5 26t4 19t5.5 16t5.5 11.5t6.5 10.5t5 8.5l92 143q21 33 42 47.5t50 14.5h82q36 0 49.5 -20t-0.5 -42l-90 -164h51q38 0 70.5 -32t32.5 -70v-123q0 -38 -32.5 -70t-70.5 -32h-205q-38 0 -70 32t-32 70zM573 983v123q0 17 1 31.5t3.5 26t4 19 t5.5 16t5.5 11.5t6.5 10.5t5 8.5l92 143q21 33 42 47.5t50 14.5h82q36 0 50 -20t0 -42l-91 -164h52q38 0 70 -32t32 -70v-123q0 -38 -32 -70t-70 -32h-205q-38 0 -70.5 32t-32.5 70z" />
<glyph unicode="&#x201d;" horiz-adv-x="1064" d="M82 1208v123q0 38 32 70.5t70 32.5h205q38 0 70.5 -32.5t32.5 -70.5v-123q0 -17 -1 -31.5t-3.5 -26t-4 -19t-5.5 -16t-5.5 -11.5t-6.5 -10.5t-5 -8.5l-92 -143q-40 -61 -93 -61h-81q-36 0 -50 19.5t0 41.5l91 164h-52q-38 0 -70 32t-32 70zM573 1208v123q0 38 32.5 70.5 t70.5 32.5h205q38 0 70 -32.5t32 -70.5v-123q0 -17 -1 -31.5t-3.5 -26t-4 -19t-5.5 -16t-5.5 -11.5t-6.5 -10.5t-5 -8.5l-92 -143q-21 -32 -41.5 -46.5t-50.5 -14.5h-82q-36 0 -49.5 19.5t0.5 41.5l90 164h-51q-38 0 -70.5 32t-32.5 70z" />
<glyph unicode="&#x201e;" horiz-adv-x="1064" d="M82 102v123q0 38 32 70.5t70 32.5h205q38 0 70.5 -32.5t32.5 -70.5v-123q0 -17 -1 -31.5t-3.5 -25.5t-4 -19t-5.5 -16l-5.5 -11t-6 -10.5t-5.5 -8.5l-92 -144q-40 -61 -93 -61h-81q-36 0 -50 19.5t0 41.5l91 164h-52q-38 0 -70 32t-32 70zM573 102v123q0 38 32.5 70.5 t70.5 32.5h205q38 0 70 -32.5t32 -70.5v-123q0 -17 -1 -31.5t-3.5 -25.5t-4 -19t-5.5 -16l-5.5 -11t-6 -10.5t-5.5 -8.5l-92 -144q-21 -32 -41.5 -46.5t-50.5 -14.5h-82q-36 0 -49.5 19.5t0.5 41.5l90 164h-51q-38 0 -70.5 32t-32.5 70z" />
<glyph unicode="&#x2020;" horiz-adv-x="1310" d="M61 870v185q0 31 20.5 51t51.5 20h297v338q0 31 20.5 51.5t51.5 20.5h286q31 0 51.5 -20.5t20.5 -51.5v-338h318q31 0 51 -20t20 -51v-185q0 -31 -20 -51t-51 -20h-318v-830q0 -31 -20.5 -51t-51.5 -20h-286q-31 0 -51.5 20t-20.5 51v830h-297q-31 0 -51.5 20t-20.5 51z " />
<glyph unicode="&#x2021;" horiz-adv-x="1351" d="M82 297v184q0 31 20.5 51.5t51.5 20.5h297v328h-297q-31 0 -51.5 20t-20.5 51v185q0 31 20.5 51t51.5 20h297v256q0 31 20 51.5t51 20.5h287q31 0 51.5 -20.5t20.5 -51.5v-256h317q31 0 51.5 -20t20.5 -51v-185q0 -31 -20.5 -51t-51.5 -20h-317v-328h317q31 0 51.5 -20.5 t20.5 -51.5v-184q0 -31 -20.5 -51.5t-51.5 -20.5h-317v-256q0 -31 -20.5 -51t-51.5 -20h-287q-31 0 -51 20t-20 51v256h-297q-31 0 -51.5 20.5t-20.5 51.5z" />
<glyph unicode="&#x2022;" horiz-adv-x="962" d="M195 655q0 123 81.5 205t204.5 82t205 -82t82 -205t-82 -204.5t-205 -81.5t-204.5 81.5t-81.5 204.5z" />
<glyph unicode="&#x2026;" horiz-adv-x="1761" d="M82 102v144q0 38 32 70t70 32h205q38 0 70.5 -32t32.5 -70v-144q0 -38 -32.5 -70t-70.5 -32h-205q-38 0 -70 32t-32 70zM676 102v144q0 38 32 70t70 32h205q38 0 70 -32t32 -70v-144q0 -38 -32 -70t-70 -32h-205q-38 0 -70 32t-32 70zM1270 102v144q0 38 32 70t70 32h205 q38 0 70 -32t32 -70v-144q0 -38 -32 -70t-70 -32h-205q-38 0 -70 32t-32 70z" />
<glyph unicode="&#x202f;" horiz-adv-x="405" />
<glyph unicode="&#x2030;" horiz-adv-x="2723" d="M41 1116q0 157 109 258t290 101t290.5 -101t109.5 -258q0 -156 -109 -257t-291 -101q-181 0 -290 100.5t-109 257.5zM224 24.5q-15 24.5 3 47.5l981 1290q58 72 123 72h297q37 0 52 -24.5t-3 -47.5l-981 -1290q-53 -72 -123 -72h-297q-37 0 -52 24.5zM358 1116 q0 -58 24.5 -90.5t57.5 -32.5t57.5 32.5t24.5 90.5t-24.5 90.5t-57.5 32.5t-57.5 -32.5t-24.5 -90.5zM1044 317q0 157 109.5 258t290.5 101t290 -101t109 -258t-109 -257.5t-290 -100.5q-182 0 -291 101t-109 257zM1362 317q0 -58 24.5 -90t57.5 -32t57.5 32t24.5 90 t-24.5 90.5t-57.5 32.5t-57.5 -32.5t-24.5 -90.5zM1884 317q0 157 109.5 258t290.5 101t290 -101t109 -258t-109 -257.5t-290 -100.5q-182 0 -291 101t-109 257zM2202 317q0 -58 24.5 -90t57.5 -32t57 32t24 90t-24 90.5t-57 32.5t-57.5 -32.5t-24.5 -90.5z" />
<glyph unicode="&#x2039;" horiz-adv-x="878" d="M63 532.5q0 38.5 23 61.5l451 450q46 46 92 0l143 -143q46 -46 0 -92l-276 -266v-21l276 -266q46 -46 0 -92l-143 -144q-46 -46 -92 0l-451 451q-23 23 -23 61.5z" />
<glyph unicode="&#x203a;" horiz-adv-x="878" d="M106 164q-46 46 0 92l277 266v21l-277 266q-46 46 0 92l144 143q46 46 92 0l451 -450q23 -23 23 -61.5t-23 -61.5l-451 -451q-46 -46 -92 0z" />
<glyph unicode="&#x205f;" horiz-adv-x="507" />
<glyph unicode="&#x20ac;" horiz-adv-x="1843" d="M51 512v102q0 62 62 62h61v82h-61q-62 0 -62 61v103q0 61 62 61h102q26 83 67 153.5t108 134t153.5 108t206.5 70.5t264 26q173 0 317 -43.5t233.5 -113.5t138 -154.5t48.5 -170.5q0 -38 -22 -60t-60 -22h-256q-43 0 -70 20t-53 62q-45 72 -107.5 113t-168.5 41 q-87 0 -153 -25.5t-101 -58.5t-64 -80h400q61 0 61 -61v-103q0 -61 -61 -61h-471v-82h471q61 0 61 -62v-102q0 -61 -61 -61h-400q98 -164 318 -164q201 0 297 174q23 41 51.5 61.5t71.5 20.5h256q38 0 60 -22t22 -60q0 -72 -31 -143t-95 -135.5t-152 -114.5t-212.5 -79.5 t-267.5 -29.5t-265.5 27.5t-211 74.5t-156 111t-107.5 133.5t-59 145.5h-102q-62 0 -62 61z" />
<glyph unicode="&#x2122;" horiz-adv-x="1986" d="M20 1249v133q0 23 14.5 37.5t37.5 14.5h676q23 0 37 -14.5t14 -37.5v-133q0 -23 -14 -37t-37 -14h-195v-410q0 -23 -14 -37t-37 -14h-185q-23 0 -37 14t-14 37v410h-194q-23 0 -37.5 14t-14.5 37zM870 788v594q0 23 14.5 37.5t37.5 14.5h256q51 0 71 -52l133 -317h11 l133 317q20 52 71 52h256q23 0 37.5 -14.5t14.5 -37.5v-594q0 -23 -14.5 -37t-37.5 -14h-184q-23 0 -37 14t-14 37v236h-10l-92 -236q-20 -51 -62 -51h-133q-41 0 -61 51l-93 236h-10v-236q0 -23 -14 -37t-37 -14h-184q-23 0 -37.5 14t-14.5 37z" />
<glyph unicode="&#x25fc;" horiz-adv-x="1433" d="M0 0v1434h1434v-1434h-1434z" />
</font>
</defs>
</svg>
